{
	"asset":{
		"version":"2.0",
		"generator":"Created using the official Cinema 4D glTF Exporter 1.000x290161"
	},
	"scenes":[{
		"nodes":[0]
	}],
	"nodes":[{
		"name":"Stage 3",
		"children":[1,
		4,
		8,
		13]
	},
	{
		"name":"Tree.1",
		"translation":[459.37506103515627,
		54.196510314941409,
		99.46929168701172],
		"rotation":[0.0,
		0.0,
		0.0,
		-1.0],
		"scale":[1.0,
		1.0,
		1.0],
		"children":[2,
		3]
	},
	{
		"name":"Tree",
		"translation":[0.0,
		0.0,
		0.0],
		"rotation":[0.008726535364985466,
		0.0,
		0.0,
		-0.9999619126319885],
		"scale":[1.0,
		1.0,
		1.0],
		"mesh":0
	},
	{
		"name":"Tree.2",
		"translation":[5.684341886080802e-14,
		103.40760040283203,
		-0.396027147769928],
		"rotation":[0.008726535364985466,
		0.0,
		0.0,
		-0.9999619126319885],
		"scale":[1.0,
		1.0,
		1.0],
		"mesh":1
	},
	{
		"name":"Tree",
		"translation":[336.0238952636719,
		54.196510314941409,
		73.82696533203125],
		"rotation":[0.0,
		0.0,
		0.0,
		-1.0],
		"scale":[1.0,
		1.0,
		1.0],
		"children":[5,
		6,
		7]
	},
	{
		"name":"Tree",
		"translation":[0.0,
		0.0,
		0.0],
		"rotation":[0.008726535364985466,
		0.0,
		0.0,
		-0.9999619126319885],
		"scale":[1.0,
		1.0,
		1.0],
		"mesh":2
	},
	{
		"name":"Tree.1",
		"translation":[5.684341886080802e-14,
		185.56146240234376,
		0.0],
		"rotation":[0.0,
		0.0,
		0.0,
		-1.0],
		"scale":[1.0,
		1.0,
		1.0],
		"mesh":3
	},
	{
		"name":"Tree.2",
		"translation":[5.684341886080802e-14,
		80.71922302246094,
		0.0],
		"rotation":[0.008726535364985466,
		0.0,
		0.0,
		-0.9999619126319885],
		"scale":[1.0,
		1.0,
		1.0],
		"mesh":4
	},
	{
		"name":"Ice",
		"translation":[60.0,
		0.0,
		57.0],
		"rotation":[0.0,
		0.0,
		0.0,
		-1.0],
		"scale":[1.0,
		1.0,
		1.0],
		"children":[9,
		11]
	},
	{
		"name":"Extrude.1",
		"translation":[-60.0,
		50.0,
		-57.0],
		"rotation":[0.0,
		0.0,
		0.0,
		-1.0],
		"scale":[1.0,
		1.0,
		1.0],
		"children":[10]
	},
	{
		"name":"Extrude.1",
		"mesh":5
	},
	{
		"name":"Extrude",
		"translation":[-60.0,
		0.0,
		-57.0],
		"rotation":[0.0,
		0.0,
		0.0,
		-1.0],
		"scale":[1.0,
		1.0,
		1.0],
		"children":[12]
	},
	{
		"name":"Extrude",
		"mesh":6
	},
	{
		"name":"mountains",
		"translation":[60.0,
		1.0,
		57.0],
		"rotation":[0.0,
		-0.7071067690849304,
		0.0,
		-0.7071067690849304],
		"scale":[1.100000023841858,
		1.100000023841858,
		1.100000023841858],
		"children":[14,
		16,
		18,
		20]
	},
	{
		"name":"Mountains2",
		"translation":[0.0,
		0.0,
		1.7383802866166935e-14],
		"rotation":[0.0,
		0.0,
		0.0,
		-1.0],
		"scale":[1.0,
		1.0,
		1.0],
		"children":[15]
	},
	{
		"name":"Mountains2",
		"mesh":7
	},
	{
		"name":"Snow",
		"translation":[0.0,
		0.0,
		3.4902433048746019e-15],
		"rotation":[0.0,
		0.0,
		0.0,
		-1.0],
		"scale":[1.0,
		1.0,
		1.0],
		"children":[17]
	},
	{
		"name":"Snow",
		"mesh":8
	},
	{
		"name":"Snow2",
		"translation":[0.0,
		0.0,
		3.4902433048746019e-15],
		"rotation":[0.0,
		0.0,
		0.0,
		-1.0],
		"scale":[1.0,
		1.0,
		1.0],
		"children":[19]
	},
	{
		"name":"Snow2",
		"mesh":9
	},
	{
		"name":"Mountains1",
		"translation":[0.0,
		0.0,
		3.4902433048746019e-15],
		"rotation":[0.0,
		0.0,
		0.0,
		-1.0],
		"scale":[1.0,
		1.0,
		1.0],
		"children":[21]
	},
	{
		"name":"Mountains1",
		"mesh":10
	}],
	"meshes":[{
		"primitives":[{
			"attributes":{
				"POSITION":1,
				"NORMAL":2,
				"TEXCOORD_0":3
			},
			"indices":0,
			"material":0
		}]
	},
	{
		"primitives":[{
			"attributes":{
				"POSITION":5,
				"NORMAL":6,
				"TEXCOORD_0":7
			},
			"indices":4,
			"material":0
		}]
	},
	{
		"primitives":[{
			"attributes":{
				"POSITION":9,
				"NORMAL":10,
				"TEXCOORD_0":11
			},
			"indices":8,
			"material":0
		}]
	},
	{
		"primitives":[{
			"attributes":{
				"POSITION":13,
				"NORMAL":14,
				"TEXCOORD_0":15
			},
			"indices":12,
			"material":0
		}]
	},
	{
		"primitives":[{
			"attributes":{
				"POSITION":17,
				"NORMAL":18,
				"TEXCOORD_0":19
			},
			"indices":16,
			"material":0
		}]
	},
	{
		"primitives":[{
			"attributes":{
				"POSITION":21,
				"NORMAL":22,
				"TEXCOORD_0":23
			},
			"indices":20,
			"material":1
		}]
	},
	{
		"primitives":[{
			"attributes":{
				"POSITION":25,
				"NORMAL":26,
				"TEXCOORD_0":27
			},
			"indices":24,
			"material":2
		}]
	},
	{
		"primitives":[{
			"attributes":{
				"POSITION":29,
				"NORMAL":30,
				"TEXCOORD_0":31
			},
			"indices":28,
			"material":3
		}]
	},
	{
		"primitives":[{
			"attributes":{
				"POSITION":33,
				"NORMAL":34,
				"TEXCOORD_0":35
			},
			"indices":32,
			"material":1
		}]
	},
	{
		"primitives":[{
			"attributes":{
				"POSITION":37,
				"NORMAL":38,
				"TEXCOORD_0":39
			},
			"indices":36,
			"material":1
		}]
	},
	{
		"primitives":[{
			"attributes":{
				"POSITION":41,
				"NORMAL":42,
				"TEXCOORD_0":43
			},
			"indices":40,
			"material":3
		}]
	}],
	"accessors":[{
		"bufferView":0,
		"type":"SCALAR",
		"componentType":5123,
		"count":2052,
		"byteOffset":0,
		"min":[0],
		"max":[508]
	},
	{
		"bufferView":1,
		"type":"VEC3",
		"componentType":5126,
		"count":509,
		"byteOffset":0,
		"min":[-86.90430450439453,
		0.4759768545627594,
		-3.0],
		"max":[86.90933227539063,
		161.81983947753907,
		6.0]
	},
	{
		"bufferView":1,
		"type":"VEC3",
		"componentType":5126,
		"count":509,
		"byteOffset":12,
		"min":[-0.9993132948875427,
		-1.0,
		-1.0],
		"max":[0.999984860420227,
		0.48391517996788027,
		1.0]
	},
	{
		"bufferView":1,
		"type":"VEC2",
		"componentType":5126,
		"count":509,
		"byteOffset":24,
		"min":[0.0,
		0.0],
		"max":[1.0,
		1.0]
	},
	{
		"bufferView":2,
		"type":"SCALAR",
		"componentType":5123,
		"count":1572,
		"byteOffset":0,
		"min":[0],
		"max":[409]
	},
	{
		"bufferView":3,
		"type":"VEC3",
		"componentType":5126,
		"count":410,
		"byteOffset":0,
		"min":[-42.33849334716797,
		0.0,
		-3.0],
		"max":[42.33854675292969,
		124.39173889160156,
		6.0]
	},
	{
		"bufferView":3,
		"type":"VEC3",
		"componentType":5126,
		"count":410,
		"byteOffset":12,
		"min":[-0.9983859658241272,
		-0.9999576807022095,
		-1.0],
		"max":[0.9983859658241272,
		0.3888457715511322,
		1.0]
	},
	{
		"bufferView":3,
		"type":"VEC2",
		"componentType":5126,
		"count":410,
		"byteOffset":24,
		"min":[0.0,
		0.0],
		"max":[1.0,
		1.0]
	},
	{
		"bufferView":4,
		"type":"SCALAR",
		"componentType":5123,
		"count":2052,
		"byteOffset":0,
		"min":[0],
		"max":[508]
	},
	{
		"bufferView":5,
		"type":"VEC3",
		"componentType":5126,
		"count":509,
		"byteOffset":0,
		"min":[-86.90430450439453,
		0.4759768545627594,
		-3.0],
		"max":[86.90933227539063,
		161.81983947753907,
		6.0]
	},
	{
		"bufferView":5,
		"type":"VEC3",
		"componentType":5126,
		"count":509,
		"byteOffset":12,
		"min":[-0.9993132948875427,
		-1.0,
		-1.0],
		"max":[0.999984860420227,
		0.48391517996788027,
		1.0]
	},
	{
		"bufferView":5,
		"type":"VEC2",
		"componentType":5126,
		"count":509,
		"byteOffset":24,
		"min":[0.0,
		0.0],
		"max":[1.0,
		1.0]
	},
	{
		"bufferView":6,
		"type":"SCALAR",
		"componentType":5123,
		"count":1572,
		"byteOffset":0,
		"min":[0],
		"max":[409]
	},
	{
		"bufferView":7,
		"type":"VEC3",
		"componentType":5126,
		"count":410,
		"byteOffset":0,
		"min":[-33.87078857421875,
		0.0,
		-4.628572940826416],
		"max":[33.87084197998047,
		99.49822998046875,
		5.957622051239014]
	},
	{
		"bufferView":7,
		"type":"VEC3",
		"componentType":5126,
		"count":410,
		"byteOffset":12,
		"min":[-0.998385488986969,
		-0.9999576807022095,
		-0.9998477697372437],
		"max":[0.998385488986969,
		0.38889607787132265,
		0.9998477697372437]
	},
	{
		"bufferView":7,
		"type":"VEC2",
		"componentType":5126,
		"count":410,
		"byteOffset":24,
		"min":[0.0,
		0.0],
		"max":[1.0,
		1.0]
	},
	{
		"bufferView":8,
		"type":"SCALAR",
		"componentType":5123,
		"count":1572,
		"byteOffset":0,
		"min":[0],
		"max":[409]
	},
	{
		"bufferView":9,
		"type":"VEC3",
		"componentType":5126,
		"count":410,
		"byteOffset":0,
		"min":[-55.04004669189453,
		0.0,
		-3.0],
		"max":[55.04010009765625,
		161.70925903320313,
		6.0]
	},
	{
		"bufferView":9,
		"type":"VEC3",
		"componentType":5126,
		"count":410,
		"byteOffset":12,
		"min":[-0.9983859658241272,
		-0.9999576807022095,
		-1.0],
		"max":[0.9983859658241272,
		0.388845831155777,
		1.0]
	},
	{
		"bufferView":9,
		"type":"VEC2",
		"componentType":5126,
		"count":410,
		"byteOffset":24,
		"min":[0.0,
		0.0],
		"max":[1.0,
		1.0]
	},
	{
		"bufferView":10,
		"type":"SCALAR",
		"componentType":5123,
		"count":1788,
		"byteOffset":0,
		"min":[0],
		"max":[497]
	},
	{
		"bufferView":11,
		"type":"VEC3",
		"componentType":5126,
		"count":498,
		"byteOffset":0,
		"min":[72.0,
		-1.0,
		55.0],
		"max":[579.1959228515625,
		1.0,
		566.4357299804688]
	},
	{
		"bufferView":11,
		"type":"VEC3",
		"componentType":5126,
		"count":498,
		"byteOffset":12,
		"min":[-1.0,
		-1.0,
		-1.0],
		"max":[0.9999978542327881,
		1.0,
		0.9999653697013855]
	},
	{
		"bufferView":11,
		"type":"VEC2",
		"componentType":5126,
		"count":498,
		"byteOffset":24,
		"min":[0.0,
		0.0],
		"max":[1.0,
		1.0]
	},
	{
		"bufferView":12,
		"type":"SCALAR",
		"componentType":5123,
		"count":708,
		"byteOffset":0,
		"min":[0],
		"max":[245]
	},
	{
		"bufferView":13,
		"type":"VEC3",
		"componentType":5126,
		"count":246,
		"byteOffset":0,
		"min":[72.0,
		0.0,
		55.0],
		"max":[579.1959228515625,
		50.0,
		566.4357299804688]
	},
	{
		"bufferView":13,
		"type":"VEC3",
		"componentType":5126,
		"count":246,
		"byteOffset":12,
		"min":[-1.0,
		-1.0,
		-1.0],
		"max":[0.9999978542327881,
		1.0,
		0.9999653697013855]
	},
	{
		"bufferView":13,
		"type":"VEC2",
		"componentType":5126,
		"count":246,
		"byteOffset":24,
		"min":[0.0,
		0.0],
		"max":[1.0,
		1.0]
	},
	{
		"bufferView":14,
		"type":"SCALAR",
		"componentType":5123,
		"count":3108,
		"byteOffset":0,
		"min":[0],
		"max":[797]
	},
	{
		"bufferView":15,
		"type":"VEC3",
		"componentType":5126,
		"count":798,
		"byteOffset":0,
		"min":[-3.0,
		0.0,
		3.4902433048746019e-15],
		"max":[3.0,
		393.30963134765627,
		427.96099853515627]
	},
	{
		"bufferView":15,
		"type":"VEC3",
		"componentType":5126,
		"count":798,
		"byteOffset":12,
		"min":[-1.0,
		-1.0,
		-0.9674628973007202],
		"max":[1.0,
		0.966978907585144,
		0.9673978686332703]
	},
	{
		"bufferView":15,
		"type":"VEC2",
		"componentType":5126,
		"count":798,
		"byteOffset":24,
		"min":[0.0,
		0.0],
		"max":[1.0,
		1.0]
	},
	{
		"bufferView":16,
		"type":"SCALAR",
		"componentType":5123,
		"count":2304,
		"byteOffset":0,
		"min":[0],
		"max":[602]
	},
	{
		"bufferView":17,
		"type":"VEC3",
		"componentType":5126,
		"count":603,
		"byteOffset":0,
		"min":[-392.0396728515625,
		221.6853790283203,
		-6.0],
		"max":[-293.5483093261719,
		299.7908935546875,
		10.0]
	},
	{
		"bufferView":17,
		"type":"VEC3",
		"componentType":5126,
		"count":603,
		"byteOffset":12,
		"min":[-0.8773710131645203,
		-0.9998871088027954,
		-1.0],
		"max":[0.7621967196464539,
		0.999610424041748,
		1.0]
	},
	{
		"bufferView":17,
		"type":"VEC2",
		"componentType":5126,
		"count":603,
		"byteOffset":24,
		"min":[0.0,
		0.0],
		"max":[1.0,
		1.0]
	},
	{
		"bufferView":18,
		"type":"SCALAR",
		"componentType":5123,
		"count":2484,
		"byteOffset":0,
		"min":[0],
		"max":[645]
	},
	{
		"bufferView":19,
		"type":"VEC3",
		"componentType":5126,
		"count":646,
		"byteOffset":0,
		"min":[-159.740966796875,
		358.08819580078127,
		-6.0],
		"max":[-51.98103713989258,
		475.6573181152344,
		10.0]
	},
	{
		"bufferView":19,
		"type":"VEC3",
		"componentType":5126,
		"count":646,
		"byteOffset":12,
		"min":[-0.8865849375724793,
		-0.9999936819076538,
		-1.0],
		"max":[0.8767412304878235,
		0.9999509453773499,
		1.0]
	},
	{
		"bufferView":19,
		"type":"VEC2",
		"componentType":5126,
		"count":646,
		"byteOffset":24,
		"min":[0.0,
		0.0],
		"max":[1.0,
		1.0]
	},
	{
		"bufferView":20,
		"type":"SCALAR",
		"componentType":5123,
		"count":4836,
		"byteOffset":0,
		"min":[0],
		"max":[1235]
	},
	{
		"bufferView":21,
		"type":"VEC3",
		"componentType":5126,
		"count":1236,
		"byteOffset":0,
		"min":[-515.91748046875,
		0.0,
		-3.0],
		"max":[0.0,
		473.0377502441406,
		7.0]
	},
	{
		"bufferView":21,
		"type":"VEC3",
		"componentType":5126,
		"count":1236,
		"byteOffset":12,
		"min":[-0.9999686479568481,
		-1.0,
		-1.0],
		"max":[1.0,
		0.9999575614929199,
		1.0]
	},
	{
		"bufferView":21,
		"type":"VEC2",
		"componentType":5126,
		"count":1236,
		"byteOffset":24,
		"min":[0.0,
		0.0],
		"max":[1.0,
		1.0]
	}],
	"bufferViews":[{
		"buffer":0,
		"byteOffset":0,
		"byteLength":4104,
		"target":34963
	},
	{
		"buffer":0,
		"byteOffset":4104,
		"byteLength":16288,
		"target":34962,
		"byteStride":32
	},
	{
		"buffer":1,
		"byteOffset":0,
		"byteLength":3144,
		"target":34963
	},
	{
		"buffer":1,
		"byteOffset":3144,
		"byteLength":13120,
		"target":34962,
		"byteStride":32
	},
	{
		"buffer":2,
		"byteOffset":0,
		"byteLength":4104,
		"target":34963
	},
	{
		"buffer":2,
		"byteOffset":4104,
		"byteLength":16288,
		"target":34962,
		"byteStride":32
	},
	{
		"buffer":3,
		"byteOffset":0,
		"byteLength":3144,
		"target":34963
	},
	{
		"buffer":3,
		"byteOffset":3144,
		"byteLength":13120,
		"target":34962,
		"byteStride":32
	},
	{
		"buffer":4,
		"byteOffset":0,
		"byteLength":3144,
		"target":34963
	},
	{
		"buffer":4,
		"byteOffset":3144,
		"byteLength":13120,
		"target":34962,
		"byteStride":32
	},
	{
		"buffer":5,
		"byteOffset":0,
		"byteLength":3576,
		"target":34963
	},
	{
		"buffer":5,
		"byteOffset":3576,
		"byteLength":15936,
		"target":34962,
		"byteStride":32
	},
	{
		"buffer":6,
		"byteOffset":0,
		"byteLength":1416,
		"target":34963
	},
	{
		"buffer":6,
		"byteOffset":1416,
		"byteLength":7872,
		"target":34962,
		"byteStride":32
	},
	{
		"buffer":7,
		"byteOffset":0,
		"byteLength":6216,
		"target":34963
	},
	{
		"buffer":7,
		"byteOffset":6216,
		"byteLength":25536,
		"target":34962,
		"byteStride":32
	},
	{
		"buffer":8,
		"byteOffset":0,
		"byteLength":4608,
		"target":34963
	},
	{
		"buffer":8,
		"byteOffset":4608,
		"byteLength":19296,
		"target":34962,
		"byteStride":32
	},
	{
		"buffer":9,
		"byteOffset":0,
		"byteLength":4968,
		"target":34963
	},
	{
		"buffer":9,
		"byteOffset":4968,
		"byteLength":20672,
		"target":34962,
		"byteStride":32
	},
	{
		"buffer":10,
		"byteOffset":0,
		"byteLength":9672,
		"target":34963
	},
	{
		"buffer":10,
		"byteOffset":9672,
		"byteLength":39552,
		"target":34962,
		"byteStride":32
	}],
	"buffers":[{
		"uri":"data:application/octet-stream;base64,",
		"byteLength":20392
	},
	{
		"uri":"data:application/octet-stream;base64,",
		"byteLength":16264
	},
	{
		"uri":"data:application/octet-stream;base64,",
		"byteLength":20392
	},
	{
		"uri":"data:application/octet-stream;base64,",
		"byteLength":16264
	},
	{
		"uri":"data:application/octet-stream;base64,",
		"byteLength":16264
	},
	{
		"uri":"data:application/octet-stream;base64,",
		"byteLength":19512
	},
	{
		"uri":"data:application/octet-stream;base64,",
		"byteLength":9288
	},
	{
		"uri":"data:application/octet-stream;base64,",
		"byteLength":31752
	},
	{
		"uri":"data:application/octet-stream;base64,",
		"byteLength":23904
	},
	{
		"uri":"data:application/octet-stream;base64,",
		"byteLength":25640
	},
	{
		"uri":"data:application/octet-stream;base64,",
		"byteLength":49224
	}],
	"materials":[{
		"pbrMetallicRoughness":{
			"baseColorFactor":[0.23529411764705886,
			0.1764705882352941,
			0.2980392156862745,
			1.0],
			"metallicFactor":0.44,
			"roughnessFactor":0.55
		},
		"emissiveFactor":[0.0,
		0.0,
		0.0],
		"alphaMode":"OPAQUE",
		"doubleSided":false,
		"name":"DominantSoft"
	},
	{
		"pbrMetallicRoughness":{
			"baseColorFactor":[0.98,
			0.9880000000000004,
			1.0,
			1.0],
			"metallicFactor":0.0,
			"roughnessFactor":0.74
		},
		"emissiveFactor":[0.0,
		0.0,
		0.0],
		"alphaMode":"OPAQUE",
		"doubleSided":false,
		"name":"WhiteSoft"
	},
	{
		"pbrMetallicRoughness":{
			"baseColorFactor":[0.7144,
			0.8090064516129032,
			0.9400000000000001,
			1.0],
			"metallicFactor":0.0,
			"roughnessFactor":0.74
		},
		"emissiveFactor":[0.0,
		0.0,
		0.0],
		"alphaMode":"OPAQUE",
		"doubleSided":false,
		"name":"LightSoft"
	},
	{
		"pbrMetallicRoughness":{
			"baseColorFactor":[0.39559999999999997,
			0.5968400000000002,
			0.86,
			1.0],
			"metallicFactor":0.44,
			"roughnessFactor":0.55
		},
		"emissiveFactor":[0.0,
		0.0,
		0.0],
		"alphaMode":"OPAQUE",
		"doubleSided":false,
		"name":"SoftGround"
	}]
}