{
	"asset":{
		"version":"2.0",
		"generator":"Created using the official Cinema 4D glTF Exporter 1.000x290161"
	},
	"scenes":[{
		"nodes":[0]
	}],
	"nodes":[{
		"name":"Watermelon",
		"translation":[0.0,
		0.0,
		0.0],
		"rotation":[0.0,
		0.0,
		0.0,
		-1.0],
		"scale":[1.0,
		1.0,
		1.0],
		"children":[1,
		2,
		3,
		4,
		5,
		6,
		7,
		9]
	},
	{
		"name":"seed1",
		"translation":[-14.0,
		-1.1368683772161604e-13,
		-5.0],
		"rotation":[0.0,
		0.0,
		0.0,
		-1.0],
		"scale":[1.0,
		1.0,
		1.0],
		"mesh":0
	},
	{
		"name":"seed2",
		"translation":[-30.652162551879884,
		-6.821210263296962e-13,
		-5.0],
		"rotation":[0.0,
		0.0,
		0.0,
		-1.0],
		"scale":[1.0,
		1.0,
		1.0],
		"mesh":1
	},
	{
		"name":"seed3",
		"translation":[-30.652162551879884,
		-8.896003723144532,
		-5.0],
		"rotation":[0.0,
		0.0,
		0.0,
		-1.0],
		"scale":[1.0,
		1.0,
		1.0],
		"mesh":2
	},
	{
		"name":"seed4",
		"translation":[-30.652162551879884,
		8.760674476623536,
		-5.0],
		"rotation":[0.0,
		0.0,
		0.0,
		-1.0],
		"scale":[1.0,
		1.0,
		1.0],
		"mesh":3
	},
	{
		"name":"seed5",
		"translation":[-23.10019874572754,
		4.9387125968933109,
		-5.0],
		"rotation":[0.0,
		0.0,
		0.0,
		-1.0],
		"scale":[1.0,
		1.0,
		1.0],
		"mesh":4
	},
	{
		"name":"seed6",
		"translation":[-23.10019874572754,
		-5.713535785675049,
		-5.0],
		"rotation":[-4.440892098500626e-16,
		-4.440892098500626e-16,
		1.9721522630525297e-31,
		-1.0],
		"scale":[1.0,
		1.0,
		1.0],
		"mesh":5
	},
	{
		"name":"Outer",
		"translation":[6.938893903907229e-18,
		-5.684376580550321e-13,
		-1.2704854011535645],
		"rotation":[0.0,
		0.0,
		0.0,
		-1.0],
		"scale":[1.0,
		1.0,
		1.0],
		"children":[8]
	},
	{
		"name":"Outer",
		"mesh":6
	},
	{
		"name":"Inner",
		"translation":[-2.2737367544323208e-13,
		-3.410605131648481e-13,
		0.0],
		"rotation":[0.0,
		0.0,
		0.0,
		-1.0],
		"scale":[1.0,
		1.0,
		1.0],
		"children":[10]
	},
	{
		"name":"Inner",
		"mesh":7
	}],
	"meshes":[{
		"primitives":[{
			"attributes":{
				"POSITION":1,
				"NORMAL":2,
				"TEXCOORD_0":3
			},
			"indices":0,
			"material":0
		}]
	},
	{
		"primitives":[{
			"attributes":{
				"POSITION":5,
				"NORMAL":6,
				"TEXCOORD_0":7
			},
			"indices":4,
			"material":0
		}]
	},
	{
		"primitives":[{
			"attributes":{
				"POSITION":9,
				"NORMAL":10,
				"TEXCOORD_0":11
			},
			"indices":8,
			"material":0
		}]
	},
	{
		"primitives":[{
			"attributes":{
				"POSITION":13,
				"NORMAL":14,
				"TEXCOORD_0":15
			},
			"indices":12,
			"material":0
		}]
	},
	{
		"primitives":[{
			"attributes":{
				"POSITION":17,
				"NORMAL":18,
				"TEXCOORD_0":19
			},
			"indices":16,
			"material":0
		}]
	},
	{
		"primitives":[{
			"attributes":{
				"POSITION":21,
				"NORMAL":22,
				"TEXCOORD_0":23
			},
			"indices":20,
			"material":0
		}]
	},
	{
		"primitives":[{
			"attributes":{
				"POSITION":25,
				"NORMAL":26,
				"TEXCOORD_0":27
			},
			"indices":24,
			"material":1
		}]
	},
	{
		"primitives":[{
			"attributes":{
				"POSITION":29,
				"NORMAL":30,
				"TEXCOORD_0":31
			},
			"indices":28,
			"material":2
		}]
	}],
	"accessors":[{
		"bufferView":0,
		"type":"SCALAR",
		"componentType":5123,
		"count":1056,
		"byteOffset":0,
		"min":[0],
		"max":[218]
	},
	{
		"bufferView":1,
		"type":"VEC3",
		"componentType":5126,
		"count":219,
		"byteOffset":0,
		"min":[-2.0,
		-2.0,
		-8.0],
		"max":[2.0,
		2.0,
		8.0]
	},
	{
		"bufferView":1,
		"type":"VEC3",
		"componentType":5126,
		"count":219,
		"byteOffset":12,
		"min":[-1.0,
		-1.0,
		-1.0],
		"max":[1.0,
		1.0,
		1.0]
	},
	{
		"bufferView":1,
		"type":"VEC2",
		"componentType":5126,
		"count":219,
		"byteOffset":24,
		"min":[0.0,
		0.0],
		"max":[1.0,
		1.0]
	},
	{
		"bufferView":2,
		"type":"SCALAR",
		"componentType":5123,
		"count":1056,
		"byteOffset":0,
		"min":[0],
		"max":[218]
	},
	{
		"bufferView":3,
		"type":"VEC3",
		"componentType":5126,
		"count":219,
		"byteOffset":0,
		"min":[-2.0,
		-2.0,
		-8.0],
		"max":[2.0,
		2.0,
		8.0]
	},
	{
		"bufferView":3,
		"type":"VEC3",
		"componentType":5126,
		"count":219,
		"byteOffset":12,
		"min":[-1.0,
		-1.0,
		-1.0],
		"max":[1.0,
		1.0,
		1.0]
	},
	{
		"bufferView":3,
		"type":"VEC2",
		"componentType":5126,
		"count":219,
		"byteOffset":24,
		"min":[0.0,
		0.0],
		"max":[1.0,
		1.0]
	},
	{
		"bufferView":4,
		"type":"SCALAR",
		"componentType":5123,
		"count":576,
		"byteOffset":0,
		"min":[0],
		"max":[167]
	},
	{
		"bufferView":5,
		"type":"VEC3",
		"componentType":5126,
		"count":168,
		"byteOffset":0,
		"min":[-2.0,
		-2.0,
		-8.0],
		"max":[2.0,
		2.0,
		8.0]
	},
	{
		"bufferView":5,
		"type":"VEC3",
		"componentType":5126,
		"count":168,
		"byteOffset":12,
		"min":[-0.9807279706001282,
		-0.9807279706001282,
		-1.0],
		"max":[0.9807279706001282,
		0.9807279706001282,
		1.0]
	},
	{
		"bufferView":5,
		"type":"VEC2",
		"componentType":5126,
		"count":168,
		"byteOffset":24,
		"min":[0.0,
		0.0],
		"max":[1.0,
		1.0]
	},
	{
		"bufferView":6,
		"type":"SCALAR",
		"componentType":5123,
		"count":1056,
		"byteOffset":0,
		"min":[0],
		"max":[218]
	},
	{
		"bufferView":7,
		"type":"VEC3",
		"componentType":5126,
		"count":219,
		"byteOffset":0,
		"min":[-2.0,
		-2.0,
		-8.0],
		"max":[2.0,
		2.0,
		8.0]
	},
	{
		"bufferView":7,
		"type":"VEC3",
		"componentType":5126,
		"count":219,
		"byteOffset":12,
		"min":[-1.0,
		-1.0,
		-1.0],
		"max":[1.0,
		1.0,
		1.0]
	},
	{
		"bufferView":7,
		"type":"VEC2",
		"componentType":5126,
		"count":219,
		"byteOffset":24,
		"min":[0.0,
		0.0],
		"max":[1.0,
		1.0]
	},
	{
		"bufferView":8,
		"type":"SCALAR",
		"componentType":5123,
		"count":1056,
		"byteOffset":0,
		"min":[0],
		"max":[218]
	},
	{
		"bufferView":9,
		"type":"VEC3",
		"componentType":5126,
		"count":219,
		"byteOffset":0,
		"min":[-2.0,
		-2.0,
		-8.0],
		"max":[2.0,
		2.0,
		8.0]
	},
	{
		"bufferView":9,
		"type":"VEC3",
		"componentType":5126,
		"count":219,
		"byteOffset":12,
		"min":[-1.0,
		-1.0,
		-1.0],
		"max":[1.0,
		1.0,
		1.0]
	},
	{
		"bufferView":9,
		"type":"VEC2",
		"componentType":5126,
		"count":219,
		"byteOffset":24,
		"min":[0.0,
		0.0],
		"max":[1.0,
		1.0]
	},
	{
		"bufferView":10,
		"type":"SCALAR",
		"componentType":5123,
		"count":1056,
		"byteOffset":0,
		"min":[0],
		"max":[218]
	},
	{
		"bufferView":11,
		"type":"VEC3",
		"componentType":5126,
		"count":219,
		"byteOffset":0,
		"min":[-2.0,
		-2.0,
		-8.0],
		"max":[2.0,
		2.0,
		8.0]
	},
	{
		"bufferView":11,
		"type":"VEC3",
		"componentType":5126,
		"count":219,
		"byteOffset":12,
		"min":[-1.0,
		-1.0,
		-1.0],
		"max":[1.0,
		1.0,
		1.0]
	},
	{
		"bufferView":11,
		"type":"VEC2",
		"componentType":5126,
		"count":219,
		"byteOffset":24,
		"min":[0.0,
		0.0],
		"max":[1.0,
		1.0]
	},
	{
		"bufferView":12,
		"type":"SCALAR",
		"componentType":5123,
		"count":2340,
		"byteOffset":0,
		"min":[0],
		"max":[678]
	},
	{
		"bufferView":13,
		"type":"VEC3",
		"componentType":5126,
		"count":679,
		"byteOffset":0,
		"min":[-47.67179870605469,
		-21.449440002441408,
		-10.83767032623291],
		"max":[-35.10145950317383,
		21.6138973236084,
		3.7063467502593996]
	},
	{
		"bufferView":13,
		"type":"VEC3",
		"componentType":5126,
		"count":679,
		"byteOffset":12,
		"min":[-0.9999998211860657,
		-0.9993356466293335,
		-0.9997920393943787],
		"max":[0.999895453453064,
		0.9962061047554016,
		0.9997920393943787]
	},
	{
		"bufferView":13,
		"type":"VEC2",
		"componentType":5126,
		"count":679,
		"byteOffset":24,
		"min":[0.0,
		0.0],
		"max":[1.0,
		1.0]
	},
	{
		"bufferView":14,
		"type":"SCALAR",
		"componentType":5123,
		"count":1764,
		"byteOffset":0,
		"min":[0],
		"max":[466]
	},
	{
		"bufferView":15,
		"type":"VEC3",
		"componentType":5126,
		"count":467,
		"byteOffset":0,
		"min":[-39.726497650146487,
		-17.866275787353517,
		-12.00397777557373],
		"max":[-0.06673380732536316,
		18.011581420898439,
		2.001927614212036]
	},
	{
		"bufferView":15,
		"type":"VEC3",
		"componentType":5126,
		"count":467,
		"byteOffset":12,
		"min":[-0.9999998211860657,
		-0.9099789261817932,
		-1.0],
		"max":[0.9994776248931885,
		0.9820016622543335,
		1.0]
	},
	{
		"bufferView":15,
		"type":"VEC2",
		"componentType":5126,
		"count":467,
		"byteOffset":24,
		"min":[0.0,
		0.0],
		"max":[1.0,
		1.0]
	}],
	"bufferViews":[{
		"buffer":0,
		"byteOffset":0,
		"byteLength":2112,
		"target":34963
	},
	{
		"buffer":0,
		"byteOffset":2112,
		"byteLength":7008,
		"target":34962,
		"byteStride":32
	},
	{
		"buffer":1,
		"byteOffset":0,
		"byteLength":2112,
		"target":34963
	},
	{
		"buffer":1,
		"byteOffset":2112,
		"byteLength":7008,
		"target":34962,
		"byteStride":32
	},
	{
		"buffer":2,
		"byteOffset":0,
		"byteLength":1152,
		"target":34963
	},
	{
		"buffer":2,
		"byteOffset":1152,
		"byteLength":5376,
		"target":34962,
		"byteStride":32
	},
	{
		"buffer":3,
		"byteOffset":0,
		"byteLength":2112,
		"target":34963
	},
	{
		"buffer":3,
		"byteOffset":2112,
		"byteLength":7008,
		"target":34962,
		"byteStride":32
	},
	{
		"buffer":4,
		"byteOffset":0,
		"byteLength":2112,
		"target":34963
	},
	{
		"buffer":4,
		"byteOffset":2112,
		"byteLength":7008,
		"target":34962,
		"byteStride":32
	},
	{
		"buffer":5,
		"byteOffset":0,
		"byteLength":2112,
		"target":34963
	},
	{
		"buffer":5,
		"byteOffset":2112,
		"byteLength":7008,
		"target":34962,
		"byteStride":32
	},
	{
		"buffer":6,
		"byteOffset":0,
		"byteLength":4680,
		"target":34963
	},
	{
		"buffer":6,
		"byteOffset":4680,
		"byteLength":21728,
		"target":34962,
		"byteStride":32
	},
	{
		"buffer":7,
		"byteOffset":0,
		"byteLength":3528,
		"target":34963
	},
	{
		"buffer":7,
		"byteOffset":3528,
		"byteLength":14944,
		"target":34962,
		"byteStride":32
	}],
	"buffers":[{
		"uri":"data:application/octet-stream;base64,",
		"byteLength":9120
	},
	{
		"uri":"data:application/octet-stream;base64,",
		"byteLength":9120
	},
	{
		"uri":"data:application/octet-stream;base64,",
		"byteLength":6528
	},
	{
		"uri":"data:application/octet-stream;base64,",
		"byteLength":9120
	},
	{
		"uri":"data:application/octet-stream;base64,",
		"byteLength":9120
	},
	{
		"uri":"data:application/octet-stream;base64,",
		"byteLength":9120
	},
	{
		"uri":"data:application/octet-stream;base64,",
		"byteLength":26408
	},
	{
		"uri":"data:application/octet-stream;base64,",
		"byteLength":18472
	}],
	"materials":[{
		"pbrMetallicRoughness":{
			"baseColorFactor":[0.23529411764705886,
			0.1764705882352941,
			0.2980392156862745,
			1.0],
			"metallicFactor":0.44,
			"roughnessFactor":0.55
		},
		"emissiveFactor":[0.0,
		0.0,
		0.0],
		"alphaMode":"OPAQUE",
		"doubleSided":false,
		"name":"DominantSoft"
	},
	{
		"pbrMetallicRoughness":{
			"baseColorFactor":[0.0,
			0.8235294117647058,
			0.5254901960784313,
			1.0],
			"metallicFactor":0.44,
			"roughnessFactor":0.55
		},
		"emissiveFactor":[0.0,
		0.0,
		0.0],
		"alphaMode":"OPAQUE",
		"doubleSided":false,
		"name":"AccentSoft"
	},
	{
		"pbrMetallicRoughness":{
			"baseColorFactor":[1.0,
			0.12549019607843138,
			0.2588235294117647,
			1.0],
			"metallicFactor":0.44,
			"roughnessFactor":0.55
		},
		"emissiveFactor":[0.0,
		0.0,
		0.0],
		"alphaMode":"OPAQUE",
		"doubleSided":false,
		"name":"DominantSoft"
	}]
}