<svg id="ëÎÓÈ_1" data-name="ëÎÓÈ 1" xmlns="http://www.w3.org/2000/svg" viewBox="0 0 37.49 60"><defs><style>.cls-1{fill:#fe6183;}</style></defs><title>Artboard 4</title><path class="cls-1" d="M37.28,7.13l-.22-.69h0C38,3.24,35.34,0,31.4,0H30.29a6.73,6.73,0,0,0-6.46,8.58L27.45,21.2a2,2,0,1,1-3.91.55V20.31a8.06,8.06,0,0,0-8-8c-.15,0-.82,0-1,.06C6.48,13.13,0,20.64,0,29.21a16.8,16.8,0,0,0,.76,5L6.94,29.1h6L4,36.6a.9.9,0,0,0,.58,1.6H16.18V60h9.1a1.88,1.88,0,0,0-1.88-1.88H17.82V38.2h5.61v6.68h0A1.87,1.87,0,0,0,25.31,43V38.44a1.88,1.88,0,0,0-1.88-1.88H17.82V29.1h7.77a6.06,6.06,0,0,0,5.82-7.72L27.55,7.93a3.2,3.2,0,0,1,3.08-4.09h0a3.21,3.21,0,0,1,3.21,3.21v3.74a4.08,4.08,0,0,1-.33,1.62l-.29.68,1.53-.6A4.32,4.32,0,0,0,37.28,7.13ZM16.18,36.56H6.58l9-7.46h.65v7.46Z"/></svg>