<svg id="ëÎÓÈ_1" data-name="ëÎÓÈ 1" xmlns="http://www.w3.org/2000/svg" viewBox="0 0 362.15 420"><defs><style>.cls-1{fill:#2873f0;}</style></defs><title>Artboard 4</title><path class="cls-1" d="M342.37,148.2c-6,1.07-14.21,1.9-20.45-.06a4,4,0,0,1,0-7.68c14-4.56,42.34-19.4,40.13-64.46a4.07,4.07,0,0,0-2.23-3.42c-8.72-4.35-42.38-20.36-55.25-14.82-14.83,6.39-16,26.61-28.32,25.54-13.94-1.2-5.23-17,7.62-25.62a4,4,0,0,0-1.38-7.26c-10.59-2.43-28.06-3.31-41.8,11.32-21.21,22.58.77,48.77-6,50.4-10.33,2.48-12-19.76-12.15-31.89a4,4,0,0,0-6.55-3.09c-20.49,16-35.32,50.37-9.41,73.82a100.57,100.57,0,0,1,14,15.09c-19.8,20.79-29,49.71-33.32,70.57a220.85,220.85,0,0,0-4.58,40.67h-6.48c.43-6.57,2.35-38.2,2.21-71.52-.2-47.71-4.42-77.33-12.54-88.15,10-12.14,17.09-10.58,24.9-22.3,11.38-17.07,8.63-44.89-16.69-61.85a4,4,0,0,0-6.27,3.93c2,14,4.13,40.49-9.66,38.65-9.84-1.32,33.17-62.81-38.48-76a4,4,0,0,0-4.33,5.75c2.63,5.45,5.64,13.17,5.43,19.71a4,4,0,0,1-7.39,2.08C105.19,15.35,83.28-8,40.48,6.29a4,4,0,0,0-2.7,3.07c-1.84,9.56-8.21,46.29.58,57.19C48.5,79.12,68.28,74.81,70.58,87c2.59,13.75-15,9.6-26.73-.45a4,4,0,0,0-6.62,3.27c.5,10.85,4.34,27.92,22.13,37.23,27.45,14.36,46.77-13.86,50.17-7.74,5.16,9.29-15.81,16.87-27.45,20.27a4,4,0,0,0-1.22,7.15c21,15.42,58,20.48,73.64-10.78a114.2,114.2,0,0,1,8.29-14.24c5.14,8,10.52,29.47,10.76,84.11.14,33.76-1.85,65.8-2.22,71.52H158a127.16,127.16,0,0,0-8.09-29.93c-8.05-19.26-19.89-30-34.38-31.4,2.53-10.4,7.39-11.7,8.66-21.36,1.81-13.75-7.75-29.71-27.44-33.33a4.31,4.31,0,0,0-4.62,6.21c4.82,9.46,11.9,25.18,5.64,25.09-6.92-.09,3.15-45.09-56.79-30.48a4.3,4.3,0,0,0-2.17,7.06c.06.08.13.15.2.23a4.31,4.31,0,0,1-4.81,6.89c-7.32-3-18.31-2.53-32.9,11.67a4.29,4.29,0,0,0-1.1,4.34c2.12,6.84,9.15,25.67,24.17,32.63,10.25,4.74,16.63-5.39,21.82,1.53s-4.2,10.06-13.81,8.6a4.32,4.32,0,0,0-4.28,6.68c4.19,6.15,11.52,13,23.42,13.32,21.66.54,25.07-23.13,29.1-20.34,5.43,3.77-2.54,13.08-8.76,19.12a4.32,4.32,0,0,0,2.59,7.4c17.5,1.67,39.38-7,39.53-30a83.56,83.56,0,0,1,.66-10.52c29,2.3,37.21,48.06,38.47,56.55H104.49a3,3,0,0,0-2.94,3.24l13.2,136.78a3,3,0,0,0,2.94,2.67H227.46a3,3,0,0,0,2.95-2.67l13.2-136.78a3,3,0,0,0-2.94-3.24H187.49a219.73,219.73,0,0,1,4.47-39.7c4.1-20,12.84-47.48,31.32-67.39,6.29,10.69,4.25,16.89,12.58,26.58,13.39,15.54,40.92,20.38,64.06.54a4,4,0,0,0-2.09-7.09c-14.05-1.8-40.11-6.91-34.63-19.7,3.91-9.12,51.58,48.84,83.54-16.63A4,4,0,0,0,342.37,148.2Zm-226.89-50c-1,5.43-10.35,7-16.64,5.85S82,96.39,83,91s13.19-7.77,19.48-6.63S116.48,92.73,115.48,98.17ZM273,109c-2.8,5.75-9.09,8.45-14.06,6s-6.74-9-3.95-14.79,9.1-8.45,14.07-6S275.8,103.2,273,109Z"/></svg>