<svg id="ëÎÓÈ_1" data-name="ëÎÓÈ 1" xmlns="http://www.w3.org/2000/svg" viewBox="0 0 64.41 117"><defs><style>.cls-1{fill:#34df96;}</style></defs><title>Artboard 4</title><path class="cls-1" d="M45.06,54c-1.9,1-.81-3,0-8.84a21.68,21.68,0,0,0-5.64-18C22.26,9.3-.06,0,0,0S3.67,19.85,9.25,40.67a10.94,10.94,0,0,0,5.41,6.79c7.47,3.93,15.44,5.29,13,7-2.58,1.84-10.89-.61-14.82-1.82A117,117,0,0,0,18.54,66.9c6.74,10,23.73,13,20.16,15.33-2.43,1.53-9.17-.83-13.31-2.43,10.3,17.76,20.15,24.43,29.28,21.87.47-.13,4.79,6.73,6.63,15.33h3.11c-2-9.66-6.5-16.77-6-17.12,9.5-6.93,7.76-28.6-5.21-54-.83-1.61-1.75-3.2-2.72-4.77C49.43,46,47.41,52.73,45.06,54Z"/></svg>