<svg id="Layer_1" data-name="Layer 1" xmlns="http://www.w3.org/2000/svg" viewBox="0 0 55 56"><defs><style>.cls-1{fill:#3b7bf2;}</style></defs><title>Artboard 2</title><path class="cls-1" d="M0,16.47C0,4.52,16.39,0,27.12,0,39.76,0,55,4.52,55,16c0,10.42-12.79,10-18,12.87-4.21,2.3-6.05,7.2-5.13,12.49h-9.5c-1.46-6.44.46-14.79,12.33-18.23,7.66-2.23,10.57-3,10.57-5.67,0-4.91-10.64-7.13-18.46-7-6.43,0-18,1.61-18,8.73a15.06,15.06,0,0,0,.46,3.45L.46,21A24.14,24.14,0,0,1,0,16.47ZM22.29,50.79a4.89,4.89,0,0,1,5.14-5.21,4.89,4.89,0,0,1,5.13,5.21A4.93,4.93,0,0,1,27.43,56,4.93,4.93,0,0,1,22.29,50.79Z"/></svg>