<svg id="ëÎÓÈ_1" data-name="ëÎÓÈ 1" xmlns="http://www.w3.org/2000/svg" viewBox="0 0 71 74.75"><defs><style>.cls-1{fill:#3b7bf2;}</style></defs><title>Artboard 4</title><path class="cls-1" d="M67,41.77l-8.51,2.28a1.74,1.74,0,0,1-1.32-.17l-8.67-5a1.73,1.73,0,0,1,0-3l8.67-5a1.74,1.74,0,0,1,1.32-.17L67,33a1.72,1.72,0,0,0,2.11-1.23L70.94,25a1.73,1.73,0,0,0-1.22-2.12l-4.58-1.23a1.72,1.72,0,0,1-1.22-2.11L65.15,15a1.74,1.74,0,0,0-1.23-2.12l-6.73-1.8a1.73,1.73,0,0,0-2.12,1.22l-2.29,8.51a1.73,1.73,0,0,1-.8,1.05l-8.67,5a1.73,1.73,0,0,1-2.59-1.5v-10a1.76,1.76,0,0,1,.5-1.22l6.23-6.22a1.74,1.74,0,0,0,0-2.45L42.52.51a1.73,1.73,0,0,0-2.45,0L36.72,3.86a1.73,1.73,0,0,1-2.44,0L30.93.51a1.73,1.73,0,0,0-2.45,0L23.55,5.43a1.74,1.74,0,0,0,0,2.45l6.23,6.22a1.76,1.76,0,0,1,.5,1.22v10a1.73,1.73,0,0,1-2.59,1.5l-8.68-5a1.69,1.69,0,0,1-.8-1.05l-2.28-8.51a1.73,1.73,0,0,0-2.12-1.22l-6.73,1.8A1.74,1.74,0,0,0,5.85,15l1.23,4.58a1.72,1.72,0,0,1-1.22,2.11L1.28,22.9A1.73,1.73,0,0,0,.06,25l1.81,6.73A1.72,1.72,0,0,0,4,33l8.51-2.28a1.74,1.74,0,0,1,1.32.17l8.67,5a1.73,1.73,0,0,1,0,3l-8.67,5a1.74,1.74,0,0,1-1.32.17L4,41.77A1.72,1.72,0,0,0,1.87,43L.06,49.73a1.73,1.73,0,0,0,1.22,2.12l4.58,1.22a1.73,1.73,0,0,1,1.22,2.12L5.85,59.77a1.74,1.74,0,0,0,1.23,2.12l6.73,1.8a1.73,1.73,0,0,0,2.12-1.22L18.21,54a1.69,1.69,0,0,1,.8-1.05l8.68-5a1.73,1.73,0,0,1,2.59,1.5v10a1.76,1.76,0,0,1-.5,1.22l-6.23,6.22a1.74,1.74,0,0,0,0,2.45l4.93,4.92a1.73,1.73,0,0,0,2.45,0l3.35-3.35a1.73,1.73,0,0,1,2.44,0l3.35,3.35a1.73,1.73,0,0,0,2.45,0l4.93-4.92a1.74,1.74,0,0,0,0-2.45l-6.23-6.22a1.76,1.76,0,0,1-.5-1.22v-10a1.73,1.73,0,0,1,2.59-1.5l8.67,5a1.73,1.73,0,0,1,.8,1.05l2.29,8.51a1.73,1.73,0,0,0,2.12,1.22l6.73-1.8a1.74,1.74,0,0,0,1.23-2.12l-1.23-4.58a1.73,1.73,0,0,1,1.22-2.12l4.58-1.22a1.73,1.73,0,0,0,1.22-2.12L69.13,43A1.72,1.72,0,0,0,67,41.77Z"/></svg>