<svg width="260" height="253" fill="none" xmlns="http://www.w3.org/2000/svg">
  <path stroke="#fff" stroke-width="2" stroke-linecap="round" stroke-linejoin="round" d="M1 252h257.521"/>
  <path d="M208.691 155.111c3.143 0 5.691-2.548 5.691-5.692 0-3.143-2.548-5.691-5.691-5.691S203 146.276 203 149.419c0 3.144 2.548 5.692 5.691 5.692zM235.048 241.617c2.829 0 5.123-2.548 5.123-5.691s-2.294-5.691-5.123-5.691c-2.828 0-5.122 2.548-5.122 5.691s2.294 5.691 5.122 5.691zM184.975 251.862H36.9904c-6.5705 0-11.9489-5.253-11.9489-11.67v-28.169H196.917v28.169c0 6.424-5.371 11.67-11.942 11.67z" fill="#A67EE5" stroke="#fff" stroke-width="2" stroke-miterlimit="10"/>
  <path d="M221.478 251.862H74.4735c-6.5269 0-11.8697-5.253-11.8697-11.67v-28.169H233.341v28.169c0 6.424-5.336 11.67-11.863 11.67zM195.058 133.484H21.9489C15.3784 133.484 10 138.839 10 145.381v53.642c0 7.18 5.8203 13 13 13h184v-66.642c0-6.542-5.371-11.897-11.942-11.897z" fill="#A67EE5" stroke="#fff" stroke-width="2" stroke-miterlimit="10"/>
  <path d="M169.801 237.065H135.25c-2.389 0-4.351-1.872-4.351-4.165v-11.691c0-.674.568-1.218 1.272-1.218h2.88c.703 0 1.272.544 1.272 1.218v10.037c0 .708.604 1.293 1.351 1.293h29.703c.739 0 1.351-.578 1.351-1.293v-10.037c0-.674.568-1.218 1.272-1.218h2.88c.703 0 1.272.544 1.272 1.218V232.9c0 2.286-1.955 4.165-4.351 4.165zM102.442 205.194h-9.1056v12.52h9.1056v-12.52zM211.714 205.194h-9.106v12.52h9.106v-12.52zM233.341 240.109v-9.874h-10.404c-3.055 0-5.531 2.598-5.531 5.803v15.824h4.732c6.164 0 11.203-5.286 11.203-11.753zM54.8051 224.544H33.9784c-.5361 0-.9691-.441-.9691-.986v-2.581c0-.546.433-.986.9691-.986h20.8267c.5361 0 .9692.44.9692.986v2.581c0 .545-.4331.986-.9692.986z" fill="#A67EE5" stroke="#fff" stroke-width="2" stroke-miterlimit="10"/>
  <path d="M135.486 200.8s8.302-74.587 39.714-90.018" stroke="#fff" stroke-width="2" stroke-miterlimit="10" stroke-linecap="round" stroke-linejoin="round"/>
  <path d="M172.715 110.116l9.266-24.4863c3.193.3766 6.131 1.4244 8.718 2.9717 1.515-1.0233 3.389-1.5391 5.346-1.3098 4.322.5075 7.408 4.4289 6.9 8.7514-.229 1.9567-1.17 3.6595-2.521 4.887.901 2.882 1.228 5.985.851 9.178l-25.965 3.299c-1.826.245-3.25-1.564-2.595-3.291z" fill="#3B7BF2"/>
  <path d="M133 210.633s6.89-44.681 37.946-56.528" stroke="#fff" stroke-width="2" stroke-miterlimit="10" stroke-linecap="round" stroke-linejoin="round"/>
  <path d="M165.608 155.036l9.016-16.475c2.3.567 4.368 1.583 6.122 2.926 1.2-.589 2.621-.774 4.039-.424 3.126.768 5.031 3.832 4.264 6.849-.349 1.37-1.187 2.485-2.291 3.23.398 2.12.359 4.36-.207 6.58l-19.339-.108c-1.364.001-2.241-1.413-1.604-2.578z" fill="#3B7BF2"/>
  <path d="M62.4087 89.7125V212.023" stroke="#fff" stroke-width="2" stroke-miterlimit="10" stroke-linecap="round"/>
  <path d="M233.961 106.796c0-2.323 1.621-4.267 3.798-4.766v-.005l21.067-5.4035c-7.78 14.8415-19.176 15.0745-19.97 15.0745h-.042c-2.686-.028-4.853-2.21-4.853-4.9z" fill="#fff"/>
  <path d="M217 92.8575l10.76.0475c.042-.133 1.026-2.8229 4.415-2.9037 1.473-.0333 2.661.575 3.478 1.7584.552.7984 1.003 1.6871 1.364 2.5853.632 1.5731 4.045 15.802 5.889 19.157 1.102 2.01 4.391 7.162 4.391 7.162.204.347.314.742.314 1.145v9.168s-3.109-1.079-3.109-3.911v-6.53c-1.915.271-6.045-1.649-8.331-2.88-3.15-1.697-5.113-3.702-6.363-6.763-1.231-3.027-1.231-6.088-.109-9.158.347-.946.855-1.8343.793-2.9131-.066-1.1406-1.387-2.7185-2.181-4.0539L217 92.8575z" fill="#fff"/>
  <path d="M25 212v-63.511c0-8.284 6.7157-14.989 15-14.989h.5" stroke="#fff" stroke-width="2"/>
  <path d="M96.5296 127.163c24.0984 32.446 35.8104 83.999 35.8104 83.999" stroke="#3B7BF2" stroke-width="2" stroke-miterlimit="10" stroke-linecap="round" stroke-linejoin="round"/>
  <path d="M80.4852 119.221c6.5442 7.506 17.1679 8.953 17.1679 8.953s.014-10.722-6.5301-18.221c-6.5442-7.5-17.1679-8.953-17.1679-8.953s-.014 10.722 6.5301 18.221z" fill="#76ABFF"/>
  <path d="M107.933 129.536c-2.697 9.584 1.91 19.267 1.91 19.267s8.973-5.863 11.67-15.447c2.696-9.585-1.91-19.268-1.91-19.268s-8.974 5.863-11.67 15.448z" fill="#3B7BF2"/>
  <path d="M90.5823 150.706c9.5847 2.696 19.2607-1.91 19.2607-1.91s-5.864-8.974-15.448-11.67c-9.5845-2.696-19.2673 1.91-19.2673 1.91s5.8701 8.981 15.4546 11.67z" fill="#3B7BF2"/>
  <path d="M120.86 155.523c-3.406 9.36.47 19.351.47 19.351s9.388-5.175 12.786-14.534c3.406-9.36-.47-19.352-.47-19.352s-9.388 5.182-12.786 14.535zM101.979 175.345c9.359 3.405 19.351-.471 19.351-.471s-5.175-9.388-14.535-12.786c-9.3595-3.398-19.3512.47-19.3512.47s5.1749 9.388 14.5352 12.787z" fill="#1553B7"/>
  <path d="M61.3363 84.8736l-2.1823 3.787c-.5135.8986.1284 2.0138 1.1634 2.0138H64.69c1.035 0 1.6849-1.1232 1.1634-2.0138l-2.1823-3.787c-.5295-.8906-1.8213-.8906-2.3348 0z" fill="#fff"/>
  <path d="M62.1469 85.01c-8.4806 0-16.921-6.4026-23.7729-18.0282-5.8169-9.8687-9.5718-22.2967-9.5718-31.6678 0-18.5819 15.1159-33.69772 33.6977-33.69772 18.5819 0 33.6977 15.11582 33.6977 33.69772 0 19.1675-15.5892 49.696-34.0507 49.696z" fill="#3B7BF2"/>
  <path d="M62.5 2.41859c18.1647 0 32.8953 14.73071 32.8953 32.89531 0 18.1647-15.0837 48.8938-33.2483 48.8938-18.1647 0-32.5423-30.7291-32.5423-48.8938 0-18.1646 14.7307-32.89531 32.8953-32.89531zm0-1.604656C43.4769.813934 28 16.2908 28 35.3139c0 9.5076 3.803 22.0961 9.676 32.069 7.0043 11.8824 15.6855 18.4214 24.463 18.4214 8.7934 0 17.603-6.539 24.8079-18.4054C93.0526 57.3538 97 44.7573 97 35.3139 97 16.2908 81.5231.813934 62.5.813934z" fill="#fff"/>
  <path d="M50.8182 35.3942c0-18.1647 5.2312-32.89538 11.6819-32.89538-18.1647 0-32.8954 14.73068-32.8954 32.89538 0 18.1646 14.3777 48.8937 32.5424 48.8937.0561 0 .1123-.008.1684-.008-6.4266-.1926-11.4973-30.7692-11.4973-48.8857z" fill="#76ABFF"/>
  <path d="M95.3953 35.3942c0-18.1647-14.7307-32.89538-32.8953-32.89538 6.4507 0 11.6819 14.73068 11.6819 32.89538 0 18.0523-5.2874 48.4765-11.6819 48.8696 18.0042-.3931 32.8953-30.8173 32.8953-48.8696z" fill="#1553B7"/>
  <path d="M62.3718 84.288c.0403 0 .0805-.0162.1288-.0162-.0644 0-.1208.0081-.1852.0081.0161 0 .0403.0081.0564.0081z" fill="#3B7BF2"/>
  <path d="M74.1816 35.3942c0-18.1647-5.2312-32.89538-11.6819-32.89538S50.8179 17.2295 50.8179 35.3942c0 18.1085 5.0707 48.6931 11.4973 48.8857.0642 0 .1203-.0081.1845-.0081 6.3946-.4011 11.6819-30.8253 11.6819-48.8776z" fill="#3B7BF2"/>
  <path d="M55.3028 28.3578c-3.4339 0-5.7286 2.2625-5.7286 5.6965 0 3.4339 2.2947 5.6965 5.7286 5.6965 3.4099 0 5.6965-2.2626 5.6965-5.6965 0-3.442-2.2946-5.6965-5.6965-5.6965zm0 7.9831c-1.8614 0-3.0649-.9307-3.0649-2.2946 0-1.364 1.2116-2.2947 3.0649-2.2947 1.8293 0 3.0649.9307 3.0649 2.2947 0 1.3719-1.2436 2.2946-3.0649 2.2946zM69.4964 28.3578c1.4362 0 2.2866 1.6127 1.4683 2.8001L57.63 50.502c-.337.4814-.8825.7702-1.4682.7702-1.4362 0-2.2867-1.6127-1.4683-2.8001L68.0282 29.128c.3289-.4814.8745-.7702 1.4682-.7702zM70.9725 39.8792c-3.434-.0321-5.6965 2.2625-5.7286 5.6965 0 3.4339 2.2946 5.6965 5.7286 5.6965s5.6965-2.2626 5.6965-5.6965c0-3.434-2.2625-5.6965-5.6965-5.6965zm0 7.9831c-1.8614 0-3.0649-.9307-3.0649-2.2946 0-1.3961 1.2115-2.2947 3.0649-2.2947 1.8614 0 3.0649.8986 3.0649 2.2947 0 1.3719-1.2115 2.2946-3.0649 2.2946z" fill="#fff"/>
  <path d="M138.549 187.774c2.304 9.105-2.272 18.118-2.272 18.118s-8.317-5.741-10.628-14.847c-2.305-9.105 2.271-18.118 2.271-18.118s8.324 5.748 10.629 14.847z" fill="#3B7BF2"/>
  <path d="M154.389 208.164c-9.106 2.304-18.118-2.272-18.118-2.272s5.741-8.317 14.847-10.628c9.105-2.311 18.118 2.271 18.118 2.271s-5.742 8.324-14.847 10.629z" fill="#3B7BF2"/>
  <path d="M143.323 194.674c-4.927 7.126-7.443 11.126-10.311 16.615" stroke="#3B7BF2" stroke-width="2" stroke-miterlimit="10" stroke-linecap="round" stroke-linejoin="round"/>
  <path d="M158.448 187.185c-6.172 7.079-16.191 8.443-16.191 8.443s-.013-10.112 6.159-17.185c6.172-7.079 16.191-8.443 16.191-8.443s.013 10.112-6.159 17.185z" fill="#76ABFF"/>
</svg>
