<svg width="89" height="83" fill="none" xmlns="http://www.w3.org/2000/svg">
  <path d="M75.8659 45.7309c1.1824 0 2.1409-.9586 2.1409-2.141s-.9585-2.1409-2.1409-2.1409c-1.1825 0-2.141.9585-2.141 2.1409s.9585 2.141 2.141 2.141zM85.7809 78.2732c1.0642 0 1.9269-.9585 1.9269-2.1409s-.8627-2.141-1.9269-2.141-1.9268.9586-1.9268 2.141.8626 2.1409 1.9268 2.1409zM66.9443 82.1269H11.275c-2.4717 0-4.49497-1.9759-4.49497-4.3899V67.1403H71.4366V77.737c0 2.4166-2.0206 4.3899-4.4923 4.3899z" fill="#A67EE5" stroke="#fff" stroke-miterlimit="10"/>
  <path d="M80.6761 82.1269H25.3755c-2.4553 0-4.4652-1.9759-4.4652-4.3899V67.1403h64.2283V77.737c0 2.4166-2.0072 4.3899-4.4625 4.3899z" fill="#A67EE5" stroke="#fff" stroke-miterlimit="10"/>
  <path d="M70.7373 37.5953H5.61667c-2.4717 0-4.49497 2.0145-4.49497 4.4755v22.0695c0 1.6569 1.34315 3 3 3h71.1079V42.0708c0-2.461-2.0206-4.4755-4.4923-4.4755zM61.2361 76.5605H48.2384c-.8986 0-1.6368-.704-1.6368-1.5667v-4.3979c0-.2535.214-.4583.4787-.4583h1.0832c.2647 0 .4787.2048.4787.4583v3.7758c0 .2663.2273.4864.5081.4864h11.1738c.2781 0 .5081-.2176.5081-.4864v-3.7758c0-.2535.214-.4583.4787-.4583h1.0832c.2648 0 .4787.2048.4787.4583v4.3979c0 .8601-.7355 1.5667-1.6367 1.5667z" fill="#A67EE5" stroke="#fff" stroke-miterlimit="10"/>
  <path d="M35.8969 64.5712h-3.4255v4.71h3.4255v-4.71zM77.0031 64.5712h-3.4255v4.71h3.4255v-4.71zM85.1386 77.7058v-3.7145h-3.9138c-1.1494 0-2.0809.9772-2.0809 2.183v5.9526h1.7804c2.3187 0 4.2143-1.9886 4.2143-4.4211zM17.9765 71.8504h-7.8346c-.20166 0-.36456-.1658-.36456-.371v-.9708c0-.2052.1629-.371.36456-.371h7.8346c.2017 0 .3646.1658.3646.371v.9708c0 .2052-.1629.371-.3646.371z" fill="#A67EE5" stroke="#fff" stroke-miterlimit="10"/>
  <path d="M20.6572 33.1725v34.3914" stroke="#fff" stroke-miterlimit="10" stroke-linecap="round"/>
  <path d="M6.76445 67.1317V43.4288c0-3.2202 2.61055-5.8274 5.83085-5.8274v0" stroke="#fff"/>
  <path d="M20.2083 31.8918l-.8422 1.4613c-.1981.3467.0496.7771.449.7771h1.6873c.3994 0 .6501-.4335.4489-.7771l-.8421-1.4613c-.2043-.3437-.7028-.3437-.9009 0z" fill="#fff"/>
  <path d="M11.4904 24.8537c2.516 4.2341 5.7048 6.7201 9.039 6.7201 3.6147 0 6.8277-2.9413 9.097-6.5787 2.2856-3.6637 3.7342-8.2167 3.7342-11.7714 0-6.95433-5.7018-12.603705-12.7034-12.603705-7.0015 0-12.70334 5.649375-12.70334 12.603705 0 3.474 1.3943 8.0253 3.53654 11.63z" fill="#3B7BF2" stroke="#fff"/>
  <path d="M16.3236 13.1438C16.3236 6.43805 18.2642 1 20.6573 1 13.9186 1 8.45386 6.43805 8.45386 13.1438c0 6.7057 5.33384 18.0498 12.07244 18.0498.0209 0 .0417-.003.0625-.003-2.3841-.071-4.2652-11.3588-4.2652-18.0468z" fill="#76ABFF"/>
  <path d="M32.8606 13.1438C32.8606 6.43805 27.3958 1 20.6572 1c2.393 0 4.3337 5.43805 4.3337 12.1438 0 6.6643-1.9615 17.8958-4.3337 18.0409 6.6791-.1451 12.2034-11.3766 12.2034-18.0409z" fill="#1553B7"/>
  <path d="M20.6099 31.1935c.0151 0 .0301-.0059.0482-.0059-.0241 0-.0452.003-.0693.003.006 0 .0151.0029.0211.0029z" fill="#3B7BF2"/>
  <path d="M24.9909 13.1438C24.9909 6.43805 23.0503 1 20.6572 1c-2.3931 0-4.3337 5.43805-4.3337 12.1438 0 6.685 1.8811 17.9758 4.2652 18.0468.0238 0 .0447-.0029.0685-.0029 2.3722-.1481 4.3337-11.3796 4.3337-18.0439z" fill="#3B7BF2"/>
  <path d="M17.88 12.094c-1.3251 0-2.2105.8731-2.2105 2.1982 0 1.325.8854 2.1981 2.2105 2.1981 1.3158 0 2.1982-.8731 2.1982-2.1981 0-1.3282-.8855-2.1982-2.1982-2.1982zm0 3.0805c-.7182 0-1.1826-.3591-1.1826-.8854 0-.5264.4675-.8855 1.1826-.8855.7059 0 1.1827.3591 1.1827.8855 0 .5294-.4799.8854-1.1827.8854zM23.3568 12.094c.5542 0 .8824.6223.5666 1.0805l-5.1455 7.4644c-.1301.1858-.3406.2973-.5666.2973-.5542 0-.8824-.6223-.5666-1.0805l5.1456-7.4645c.1269-.1858.3374-.2972.5665-.2972zM23.9266 16.5399c-1.3251-.0124-2.1982.8731-2.2105 2.1982 0 1.3251.8854 2.1981 2.2105 2.1981 1.3251 0 2.1982-.873 2.1982-2.1981 0-1.3251-.8731-2.1982-2.1982-2.1982zm0 3.0805c-.7183 0-1.1827-.3591-1.1827-.8854 0-.5387.4675-.8855 1.1827-.8855.7183 0 1.1827.3468 1.1827.8855 0 .5294-.4675.8854-1.1827.8854z" fill="#fff"/>
  <path d="M63.9677 30.0797C53.5324 44.1304 48.4606 66.4545 48.4606 66.4545" stroke="#3B7BF2" stroke-miterlimit="10" stroke-linecap="round" stroke-linejoin="round"/>
  <path d="M70.9156 26.6407c-2.8338 3.2505-7.4343 3.8768-7.4343 3.8768s-.0061-4.643 2.8278-7.8904c2.8338-3.2473 7.4343-3.8767 7.4343-3.8767s.0061 4.643-2.8278 7.8903z" fill="#76ABFF"/>
  <path d="M59.0297 31.1074c1.1676 4.1504-.8271 8.3434-.8271 8.3434s-3.8859-2.5389-5.0535-6.6893c-1.1675-4.1505.8271-8.3435.8271-8.3435s3.8859 2.5389 5.0535 6.6894z" fill="#3B7BF2"/>
  <path d="M66.5432 40.2749c-4.1504 1.1676-8.3404-.8271-8.3404-.8271s2.5389-3.8859 6.6894-5.0535c4.1504-1.1676 8.3434.8271 8.3434.8271s-2.542 3.8889-6.6924 5.0535z" fill="#3B7BF2"/>
  <path d="M53.432 42.3607c1.4747 4.0532-.2037 8.3799-.2037 8.3799s-4.0653-2.2409-5.537-6.294c-1.4747-4.0532.2037-8.3799.2037-8.3799s4.0653 2.2439 5.537 6.294z" fill="#1553B7"/>
  <path d="M61.6081 50.9443c-4.0532 1.4747-8.38-.2037-8.38-.2037s2.241-4.0653 6.2941-5.537c4.0531-1.4716 8.3799.2038 8.3799.2038s-2.2409 4.0653-6.294 5.5369z" fill="#1553B7"/>
  <path d="M40.4377 45.7828c5.3504 7.985 7.9507 20.6718 7.9507 20.6718" stroke="#3B7BF2" stroke-miterlimit="10" stroke-linecap="round" stroke-linejoin="round"/>
  <path d="M34.5936 44.1323c2.8338 3.2504 7.4343 3.8767 7.4343 3.8767s.0061-4.643-2.8278-7.8903c-2.8338-3.2474-7.4343-3.8768-7.4343-3.8768s-.006 4.643 2.8278 7.8904zM45.2216 47.131c-1.4747 4.0532.2037 8.38.2037 8.38s4.0653-2.241 5.537-6.2941c1.4746-4.0531-.2038-8.3799-.2038-8.3799s-4.0653 2.2439-5.5369 6.294z" fill="#3B7BF2"/>
  <path d="M37.0455 55.7148c4.0531 1.4747 8.3799-.2038 8.3799-.2038s-2.2409-4.0653-6.294-5.5369c-4.0532-1.4717-8.38.2037-8.38.2037s2.241 4.0653 6.2941 5.537z" fill="#3B7BF2"/>
</svg>
