<svg width="188" height="249" fill="none" xmlns="http://www.w3.org/2000/svg">
  <path d="M117.345 124.816c1.467-.982 3.4.223 3.147 1.971-1.025 7.035-2.074 20.329 4.851 19.404 4.937-.658-16.654-31.533 19.318-38.156 1.632-.3 2.896 1.391 2.176 2.885-1.324 2.737-2.834 6.615-2.729 9.899.063 1.961 2.624 2.675 3.711 1.044 4.096-6.154 15.098-17.857 36.59-10.703.696.232 1.213.82 1.351 1.54.927 4.802 4.126 23.244-.289 28.716-5.088 6.312-15.025 4.144-16.174 10.249-1.3 6.906 7.513 4.825 13.421-.223 1.338-1.144 3.406-.116 3.322 1.642-.253 5.45-2.181 14.017-11.115 18.69-13.78 7.21-23.479-6.957-25.189-3.883-2.591 4.662 7.939 8.47 13.782 10.177 1.616.471 1.969 2.588.613 3.586-10.522 7.742-29.126 10.285-36.973-5.409-8.295-16.59-12.936-12.486-18.194-20.376-5.714-8.569-4.333-22.538 8.381-31.053zm29.403 32.469c.499 2.732 5.199 3.514 8.357 2.939 3.158-.577 8.473-3.832 7.974-6.563-.499-2.732-6.62-3.902-9.778-3.325-3.155.577-7.051 4.22-6.553 6.949z" fill="#E81A5A"/>
  <path d="M116.86 245.878s-4.908-70.272 5.541-80.722" stroke="#E81A5A" stroke-width="2" stroke-miterlimit="10"/>
  <path d="M1 247.1h136.663" stroke="#fff" stroke-width="2" stroke-miterlimit="10" stroke-linecap="round"/>
  <path d="M105.767 247.1c1.948 0 3.531-1.592 3.531-3.531v-5.065c0-1.948-1.592-3.531-3.531-3.531-1.948 0-3.531 1.591-3.531 3.531v5.065c0 1.939 1.591 3.531 3.531 3.531zM30.2276 247.1c1.9479 0 3.5312-1.592 3.5312-3.531v-5.065c0-1.948-1.5915-3.531-3.5312-3.531-1.948 0-3.5312 1.591-3.5312 3.531v5.065c0 1.939 1.5915 3.531 3.5312 3.531z" fill="#A67EE5" stroke="#fff" stroke-width="2" stroke-miterlimit="10"/>
  <path d="M24.7899 238.504h74.503c6.2421 0 11.3481-5.106 11.3481-11.348v-66.081c0-6.242-5.106-11.348-11.3481-11.348h-74.503c-6.2418 0-11.3479 5.106-11.3479 11.348v66.081c0 6.242 5.1061 11.348 11.3479 11.348z" fill="#A67EE5" stroke="#fff" stroke-width="2" stroke-miterlimit="10"/>
  <path d="M86.9752 158.646v44.961M51.6881 158.646v44.961" stroke="#fff" stroke-width="2" stroke-miterlimit="10" stroke-linecap="round"/>
  <path d="M53.1305 137.368h32.4023c2.2464 0 4.0783 1.832 4.0783 4.078v16.007c0 .663-.5305 1.193-1.1936 1.193h-2.7023c-.6631 0-1.1936-.53-1.1936-1.193v-14.382c0-.696-.572-1.268-1.2683-1.268H55.4017c-.6963 0-1.2682.572-1.2682 1.268v14.382c0 .663-.5305 1.193-1.1936 1.193h-2.7023c-.6631 0-1.1937-.53-1.1937-1.193v-16.007c.0083-2.246 1.8402-4.078 4.0866-4.078z" fill="#A67EE5" stroke="#fff" stroke-width="2" stroke-miterlimit="10"/>
  <path d="M39.2131 238.504h74.5029c6.242 0 11.348-5.106 11.348-11.348v-66.081c0-6.242-5.106-11.348-11.348-11.348H39.2131c-6.2417 0-11.3479 5.106-11.3479 11.348v66.081c.0083 6.242 5.1144 11.348 11.3479 11.348z" fill="#A67EE5" stroke="#fff" stroke-width="2" stroke-miterlimit="10"/>
  <path d="M108.096 170.641H44.8414M108.096 194.116H44.8414M108.096 217.591H44.8414" stroke="#fff" stroke-width="2" stroke-miterlimit="10" stroke-linecap="round"/>
  <path d="M21.9964 171.892h.6715v44.455h-.6715c-1.9313 0-3.5146-1.583-3.5146-3.514v-37.418c-.0082-1.939 1.575-3.523 3.5146-3.523z" fill="#A67EE5" stroke="#fff" stroke-width="2" stroke-miterlimit="10"/>
  <path d="M69.3359 137.078L13.7488 57.245M69.3358 137.078L50.8013 57.245M87.8621 57.245l-18.5263 79.833M124.915 57.245l-55.5792 79.833" stroke="#fff" stroke-width="2" stroke-miterlimit="10" stroke-linecap="round" stroke-linejoin="round"/>
  <path d="M124.915 58.0739c-.456 0-.829-.373-.829-.8289 0-6.2998-7.941-11.4225-17.698-11.4225-9.557 0-17.498 5.0232-17.6886 11.1904l-.0083.2321c0 .4559-.373.8289-.8289.8289-.456 0-.829-.373-.829-.8289 0-6.2998-7.941-11.4225-17.6973-11.4225-9.7564 0-17.6974 5.1227-17.6974 11.4225 0 .4559-.373.8289-.8289.8289-.4559 0-.8289-.373-.8289-.8289l-.0083-.2404c-.199-6.1672-8.1317-11.1821-17.6891-11.1821-9.7563 0-17.6974 5.1227-17.6974 11.4225 0 .4559-.373.8289-.8289.8289-.4559 0-.8289-.373-.8289-.8289C12.9198 26.1357 38.2266.828918 69.3276.828918c31.1094 0 56.4164 25.306782 56.4164 56.416082 0 .4559-.365.8289-.829.8289z" fill="#F7396B"/>
  <path d="M69.3359 1.65783c30.7031 0 55.5871 24.88407 55.5871 55.58717 0-6.764-8.297-12.2514-18.526-12.2514-10.1047 0-18.311 5.3465-18.5182 11.9944 0 .0829-.0083.1741-.0083.257 0-6.764-8.2975-12.2514-18.5263-12.2514S50.8013 50.481 50.8013 57.245c0-.0912-.0082-.1741-.0082-.2653-.2156-6.6396-8.4218-11.9861-18.518-11.9861-10.2372 0-18.5263 5.4874-18.5263 12.2514 0-30.7031 24.8841-55.58717 55.5871-55.58717zm0-1.65783c-31.5651 0-57.245 25.6798-57.245 57.245 0 .9118.7461 1.6578 1.6579 1.6578.9118 0 1.6578-.746 1.6578-1.6578 0-5.8439 7.568-10.5936 16.8685-10.5936 9.1097 0 16.6778 4.6585 16.8601 10.3781l.0083.1326v.0829c0 .9118.746 1.6578 1.6578 1.6578.9119 0 1.6579-.7377 1.6579-1.6578 0-5.8439 7.568-10.5936 16.8684-10.5936 9.3005 0 16.8685 4.7497 16.8685 10.5936 0 .9118.746 1.6578 1.6578 1.6578.9118 0 1.6578-.746 1.6578-1.6578v-.0746l.0083-.1327c.1824-5.7278 7.7421-10.3863 16.86-10.3863 9.301 0 16.869 4.7497 16.869 10.5936 0 .9118.746 1.6578 1.657 1.6578.912 0 1.658-.746 1.658-1.6578C126.573 25.6798 100.893 0 69.3359 0z" fill="#fff"/>
  <path d="M69.3359 1.65783c9.9222 0 18.0207 20.89697 18.5429 55.33017.2072-6.6479 8.4135-11.9944 18.5182-11.9944 10.237 0 18.526 5.4874 18.526 12.2514-.008-30.7031-24.892-55.58717-55.5871-55.58717z" fill="#E81A5A"/>
  <path d="M69.3276 1.65783c-30.6947 0-55.5788 24.88407-55.5788 55.58717 0-6.764 8.2974-12.2514 18.5263-12.2514 10.0962 0 18.3024 5.3465 18.518 11.9861.5222-34.4249 8.6124-55.32187 18.5345-55.32187z" fill="#FE6183"/>
  <path d="M69.336 1.65783c-9.9305 0-18.0207 20.89697-18.5429 55.32187 0 .0912.0083.1741.0083.2653 0-6.764 8.2974-12.2514 18.5263-12.2514 10.2288 0 18.5262 5.4874 18.5262 12.2514 0-.0912.0083-.1741.0083-.257-.5139-34.4332-8.6041-55.33017-18.5262-55.33017z" fill="#F7396B"/>
  <path d="M176.796 201.401c.578.562.785 1.403.549 2.172-1.06 3.426-4.58 12.854-12.101 16.337-5.134 2.377-8.326-2.697-10.923.769-2.654 3.539 2.103 5.034 6.916 4.305 1.877-.285 3.211 1.775 2.141 3.343-2.101 3.076-5.771 6.521-11.725 6.671-10.845.269-12.553-11.584-14.569-10.186-2.722 1.885 1.269 6.548 4.386 9.573 1.325 1.285.54 3.531-1.297 3.706-8.763.839-19.719-3.51-19.794-15-.083-12.937-4.251-11.797-5.115-18.356-.906-6.881 3.883-14.876 13.744-16.686 1.762-.322 3.128 1.514 2.313 3.112-2.412 4.732-5.959 12.606-2.824 12.563 3.461-.048-1.578-22.578 28.432-15.263 1.584.384 2.181 2.329 1.089 3.539-.032.037-.067.075-.099.113-1.517 1.704.296 4.321 2.406 3.45 3.663-1.517 9.165-1.272 16.471 5.838z" fill="#FE6183"/>
  <path d="M99 245.886s3.48-30.113 21.701-30.113" stroke="#FE6183" stroke-width="2" stroke-miterlimit="10"/>
</svg>
