<svg width="104" height="69" fill="none" xmlns="http://www.w3.org/2000/svg">
  <path d="M64.8535 10.7452c.9311-.1827 1.6402.816 1.1522 1.6302-1.967 3.2772-5.2438 9.6538-1.6172 10.6308 2.5855.6974-1.7223-19.09433 17.4937-14.92072.8713.1898 1.148 1.29066.4812 1.88238-1.2243 1.08304-2.7773 2.69334-3.4061 4.34434-.3758.9852.7467 1.8708 1.624 1.2869 3.3077-2.2029 11.1914-5.72669 20.3687 2.278.297.2593.432.6582.35 1.0438-.535 2.5745-2.7726 12.3851-6.0967 14.1837-3.8328 2.0762-8.3121-1.0596-10.1478 1.7305-2.0766 3.1559 2.7262 3.9505 6.7034 2.6717.9005-.2898 1.7134.6486 1.3074 1.5034-1.2557 2.6506-3.9884 6.5002-9.3886 6.9658-8.33.7195-10.2035-8.3191-11.6889-7.1487-2.2521 1.7753 2.1815 5.8472 4.7261 7.9055.7033.569.4396 1.6922-.44 1.9059-6.8244 1.6584-16.5794-.9377-17.2176-10.3492-.6746-9.9484-3.8275-8.8749-4.7997-13.8789-1.0574-5.4355 2.5237-12.0777 10.5959-13.6654zm7.8523 22.202c-.319 1.4584 1.8502 2.8208 3.5356 3.1906 1.6859.3685 4.9971-.1439 5.316-1.6023.3189-1.4583-2.4746-3.308-4.1605-3.6765-1.6846-.368-4.3727.6311-4.6911 2.0882z" fill="#E81A5A"/>
  <path d="M89.5603 47.3661c.2264.3174.2521.7358.0729 1.0812-.8006 1.5383-3.2913 5.7194-7.1712 6.7253-2.6482.6867-3.7277-2.0038-5.2636-.5795-1.5691 1.4541.5648 2.5771 2.9181 2.647.9177.0268 1.374 1.1223.7291 1.7756-1.2655 1.2819-3.31 2.6031-6.1557 2.1595-5.1832-.8106-4.9697-6.5981-6.0503-6.1074-1.458.6614.0372 3.2253 1.2582 4.9344.5195.7263-.0484 1.7266-.9374 1.6508-4.2422-.3592-9.0783-3.3762-8.1197-8.8497 1.08-6.1625-1.0018-5.9808-.8448-9.176.1643-3.3525 3.1349-6.7417 7.9832-6.7494.8659-.0011 1.3569.991.831 1.6805-1.5572 2.043-3.9262 5.4822-2.4307 5.7331 1.6508.2765 1.203-10.8787 14.8483-4.8014.7203.32.8361 1.2967.2119 1.778-.0186.0151-.0385.03-.0571.0451-.8691.6799-.2332 2.0816.8465 1.8498 1.8739-.4046 4.4704.188 7.3313 4.2031z" fill="#FE6183"/>
  <path d="M51.2863 68.1073c1.0579 0 1.9177-.8644 1.9177-1.9178V63.439c0-1.0579-.8643-1.9177-1.9177-1.9177-1.0579 0-1.9177.8643-1.9177 1.9177v2.7505c0 1.0534.8643 1.9178 1.9177 1.9178zM10.2625 68.1073c1.0579 0 1.9177-.8644 1.9177-1.9178V63.439c0-1.0579-.8643-1.9177-1.9177-1.9177-1.05789 0-1.91771.8643-1.91771 1.9177v2.7505c0 1.0534.86432 1.9178 1.91771 1.9178z" fill="#A67EE5" stroke="#fff" stroke-miterlimit="10"/>
  <path d="M7.30934 63.439H47.7704c3.3898 0 6.1628-2.773 6.1628-6.1628V21.3888c0-3.3898-2.773-6.1628-6.1628-6.1628H7.30934c-3.38976 0-6.16279 2.773-6.16279 6.1628v35.8874c0 3.3898 2.77303 6.1628 6.16279 6.1628z" fill="#A67EE5" stroke="#fff" stroke-miterlimit="10"/>
  <path d="M41.0809 20.0698v24.4171M21.9174 20.0698v24.4171" stroke="#fff" stroke-miterlimit="10" stroke-linecap="round"/>
  <path d="M22.7006 8.51392h17.597c1.22 0 2.2149.99487 2.2149 2.21478v8.6928c0 .3601-.2881.6482-.6483.6482h-1.4675c-.3602 0-.6483-.2881-.6483-.6482v-7.8104c0-.3782-.3106-.6888-.6887-.6888H23.934c-.3781 0-.6887.3106-.6887.6888v7.8104c0 .3601-.2881.6482-.6482.6482h-1.4676c-.3601 0-.6482-.2881-.6482-.6482v-8.6928c.0045-1.21991.9993-2.21478 2.2193-2.21478z" fill="#A67EE5" stroke="#fff" stroke-miterlimit="10"/>
  <path d="M15.1424 63.439h40.4611c3.3898 0 6.1628-2.773 6.1628-6.1628V21.3888c0-3.3898-2.773-6.1628-6.1628-6.1628H15.1424c-3.3898 0-6.16279 2.773-6.16279 6.1628v35.8874c.00451 3.3898 2.77749 6.1628 6.16279 6.1628z" fill="#A67EE5" stroke="#fff" stroke-miterlimit="10"/>
  <path d="M52.5513 26.5837H18.199M52.5513 39.3325H18.199M52.5513 52.0812H18.199" stroke="#fff" stroke-miterlimit="10" stroke-linecap="round"/>
  <path d="M5.7924 27.2634h.36463v24.1425H5.7924c-1.04889 0-1.90872-.8598-1.90872-1.9087V29.1766c-.0045-1.0534.85532-1.9132 1.90872-1.9132z" fill="#A67EE5" stroke="#fff" stroke-miterlimit="10"/>
</svg>
