<svg width="95" height="73" fill="none" xmlns="http://www.w3.org/2000/svg">
  <path d="M88.5027 25.5h-6.0054c-3.3213 0-5.9973-2.5846-5.9973-5.6942V7.19419C76.5 4.08464 79.176 1.5 82.4973 1.5h6.0054C91.824 1.5 94.5 4.08464 94.5 7.19419V19.8058c0 3.1069-2.6761 5.6942-5.9973 5.6942z" stroke="#fff"/>
  <path d="M80.1548 42.5704H54.0649v-6.0945h23.662c2.348 0 4.2533 1.9113 4.2533 4.2669-.0036 1.0084-.8202 1.8276-1.8254 1.8276zM48.8673 69.6906c.1836 1.2102-.7533 2.3-1.9774 2.3h-1.9532c-.9887 0-1.829-.7224-1.9773-1.6999l-2.104-13.8648c-.1837-1.2102.7532-2.3 1.9773-2.3h1.9532c.9887 0 1.829.7224 1.9774 1.6999l2.104 13.8648zM70.1528 69.691c.1834 1.2101-.7534 2.2996-1.9774 2.2996h-1.9533c-.9888 0-1.8292-.7226-1.9774-1.7003l-2.1012-13.8648c-.1833-1.2101.7535-2.2996 1.9775-2.2996h1.9533c.9888 0 1.8292.7226 1.9774 1.7003l2.1011 13.8648z" fill="#A67EE5" stroke="#fff" stroke-miterlimit="10"/>
  <path d="M82.0312 47.9986H66.3823c-1.1868 0-2.1957-.8701-2.3735-2.0497l-4.6635-31.0294c1.7928-1.5036 2.8852-3.8227 2.7074-6.39305-.2613-3.75353-3.2953-6.79712-7.0369-7.05561-.3484-.02549-.6932-.02185-1.0343 0h-23.662l-.1343 44.19406 6.772 10.0301 20.2687 3.6042c.5698.2075 1.1795.324 1.8146.324h22.9907c3.201 0 5.7922-2.603 5.7922-5.8105 0-3.211-2.5912-5.8141-5.7922-5.8141z" fill="#A67EE5" stroke="#fff" stroke-miterlimit="10"/>
  <path d="M39.3163 45.9539l-4.6635-31.0295c1.7928-1.5036 2.8852-3.8227 2.7074-6.39298-.2613-3.75353-3.2953-6.79713-7.0369-7.05562-4.4385-.30582-8.1329 3.21471-8.1329 7.60172 0 .78638.1197 1.54368.3375 2.25718l6.576 43.7645c.3919 2.6031 2.6202 4.529 5.2441 4.529h31.3485c3.2009 0 5.7921-2.6031 5.7921-5.8105 0-3.2111-2.5948-5.8105-5.7921-5.8105H41.6897c-1.1867-.0073-2.1956-.8774-2.3734-2.0533z" fill="#A67EE5" stroke="#fff" stroke-miterlimit="10"/>
  <path d="M58.1439 42.5704H27.22l-.9145-6.0945h29.4106c2.348 0 4.2533 1.9113 4.2533 4.2669-.0036 1.0084-.8202 1.8276-1.8255 1.8276z" fill="#A67EE5" stroke="#fff" stroke-miterlimit="10"/>
  <path d="M34.6526 14.9195h24.6927" stroke="#fff" stroke-miterlimit="10" stroke-linecap="round"/>
  <path d="M18.4375 72.5c9.5355 0 17.2656-7.7301 17.2656-17.2656 0-9.5356-7.7301-17.2656-17.2656-17.2656-9.53554 0-17.26562 7.73-17.26562 17.2656 0 9.5355 7.73008 17.2656 17.26562 17.2656z" fill="#36E69A" stroke="#fff"/>
  <path d="M11.8874 55.2344c0-9.1949 2.9313-16.6491 6.5501-16.6491-9.19487 0-16.64911 7.4542-16.64911 16.6491S9.24263 71.8835 18.4375 71.8835c-3.6188-.0023-6.5501-7.4542-6.5501-16.6491z" fill="#068E4D"/>
  <path d="M18.4375 38.5853c3.6164 0 6.5501 7.4542 6.5501 16.6491s-2.9313 16.6491-6.5501 16.6491c9.1949 0 16.6491-7.4542 16.6491-16.6491s-7.4542-16.6491-16.6491-16.6491z" fill="#36E69A"/>
  <path d="M18.4375 71.8835c3.6176 0 6.5501-7.4541 6.5501-16.6491 0-9.1951-2.9325-16.6491-6.5501-16.6491-3.6175 0-6.5501 7.454-6.5501 16.6491 0 9.195 2.9326 16.6491 6.5501 16.6491z" fill="#25B774"/>
  <path d="M13.2344 53.3279c0-2.3924 3.1014-3.2967 5.1306-3.2967 2.3916 0 5.2756.9043 5.2756 3.2042 0 2.0858-2.4193 1.9933-3.4062 2.5751-.5755.3315-.9166.9335-.9954 1.6415-.0555.4894-.4477.8569-.9145.8569-.5542 0-.9826-.5119-.9165-1.0959.1151-1.0214.7503-2.0497 2.3937-2.5547 1.4495-.4443 1.9994-.5976 1.9994-1.1342 0-.9809-2.0143-1.4251-3.4936-1.4116-1.2171 0-3.4062.3224-3.4062 1.7475v.0068c0 .345-.2814.6133-.6011.5502l-.6203-.1195c-.2196-.0429-.3901-.23-.4157-.4645-.0192-.1737-.0298-.345-.0298-.5051zm4.2183 6.8683c0-.6291.3922-1.0417.972-1.0417s.972.4149.972 1.0417c0 .6134-.3922 1.0418-.972 1.0418s-.972-.4284-.972-1.0418z" fill="#fff"/>
</svg>
