<svg xmlns="http://www.w3.org/2000/svg" xmlns:xlink="http://www.w3.org/1999/xlink" viewBox="0 0 350 330">
  <g>
    <path d="M225.88,258.06H82.68a11.62,11.62,0,0,0-11.57,11.61v19.75H237.44V269.66a11.62,11.62,0,0,0-11.56-11.61" fill="#a67ee5"/>
    <path d="M225.88,258.06H82.68a11.62,11.62,0,0,0-11.57,11.61v19.75H237.44V269.66A11.62,11.62,0,0,0,225.88,258.06Z" fill="none" stroke="#fff" stroke-miterlimit="10" stroke-width="2"/>
    <path d="M267.11,258.06H119.23a11.81,11.81,0,0,0-11.93,11.61v19.75H279V269.66a11.81,11.81,0,0,0-11.93-11.61" fill="#a67ee5"/>
    <path d="M267.11,258.06H119.23a11.81,11.81,0,0,0-11.93,11.61v19.75H279V269.66A11.81,11.81,0,0,0,267.11,258.06Z" fill="none" stroke="#fff" stroke-miterlimit="10" stroke-width="2"/>
    <path d="M278.74,279.41a5.34,5.34,0,1,0-5.32-5.34,5.32,5.32,0,0,0,5.32,5.34" fill="#a67ee5"/>
    <ellipse cx="278.74" cy="274.07" rx="5.31" ry="5.34" fill="none" stroke="#fff" stroke-miterlimit="10" stroke-width="2"/>
    <path d="M277.62,269.66v9.75H266.89a5.72,5.72,0,0,1-5.71-5.73V258.06h4.88a11.61,11.61,0,0,1,11.56,11.61" fill="#a67ee5"/>
    <path d="M277.62,269.66v9.75H266.89a5.72,5.72,0,0,1-5.71-5.73V258.06h4.88A11.61,11.61,0,0,1,277.62,269.66Z" fill="none" stroke="#fff" stroke-miterlimit="10" stroke-width="2"/>
  </g>
  <g>
    <path d="M280.29,318.62a5.72,5.72,0,1,0-5.12-5.69,5.43,5.43,0,0,0,5.12,5.69" fill="#a67ee5"/>
    <ellipse cx="280.29" cy="312.93" rx="5.12" ry="5.69" fill="none" stroke="#fff" stroke-miterlimit="10" stroke-width="2"/>
    <path d="M230.22,328.86h-148a11.85,11.85,0,0,1-11.95-11.67V289H242.16v28.17a11.84,11.84,0,0,1-11.94,11.67" fill="#a67ee5"/>
    <path d="M230.22,328.86h-148a11.85,11.85,0,0,1-11.95-11.67V289H242.16v28.17A11.84,11.84,0,0,1,230.22,328.86Z" fill="none" stroke="#fff" stroke-miterlimit="10" stroke-width="2"/>
    <path d="M266.72,328.86h-147a11.81,11.81,0,0,1-11.87-11.67V289H278.58v28.17a11.79,11.79,0,0,1-11.86,11.67" fill="#a67ee5"/>
    <path d="M266.72,328.86h-147a11.81,11.81,0,0,1-11.87-11.67V289H278.58v28.17A11.79,11.79,0,0,1,266.72,328.86Z" fill="none" stroke="#fff" stroke-miterlimit="10" stroke-width="2"/>
    <path d="M215,314.07H180.49a4.27,4.27,0,0,1-4.35-4.16V298.21a1.24,1.24,0,0,1,1.27-1.22h2.88a1.25,1.25,0,0,1,1.27,1.22v10a1.33,1.33,0,0,0,1.35,1.29h29.71a1.33,1.33,0,0,0,1.35-1.29v-10a1.24,1.24,0,0,1,1.27-1.22h2.88a1.25,1.25,0,0,1,1.27,1.22V309.9a4.27,4.27,0,0,1-4.35,4.16" fill="#a67ee5"/>
    <path d="M215,314.07H180.49a4.27,4.27,0,0,1-4.35-4.16V298.21a1.24,1.24,0,0,1,1.27-1.22h2.88a1.25,1.25,0,0,1,1.27,1.22v10a1.33,1.33,0,0,0,1.35,1.29h29.71a1.33,1.33,0,0,0,1.35-1.29v-10a1.24,1.24,0,0,1,1.27-1.22h2.88a1.25,1.25,0,0,1,1.27,1.22V309.9A4.27,4.27,0,0,1,215,314.07Z" fill="none" stroke="#fff" stroke-miterlimit="10" stroke-width="2"/>
    <rect x="138.58" y="282.19" width="9.1" height="12.52" fill="#a67ee5"/>
    <rect x="138.58" y="282.19" width="9.1" height="12.52" fill="none" stroke="#fff" stroke-miterlimit="10" stroke-width="2"/>
    <rect x="247.85" y="282.19" width="9.1" height="12.52" fill="#a67ee5"/>
    <rect x="247.85" y="282.19" width="9.1" height="12.52" fill="none" stroke="#fff" stroke-miterlimit="10" stroke-width="2"/>
    <path d="M278.58,317.11v-9.87h-10.4a5.67,5.67,0,0,0-5.53,5.8v15.82h4.73c6.16,0,11.2-5.29,11.2-11.75" fill="#a67ee5"/>
    <path d="M278.58,317.11v-9.87h-10.4a5.67,5.67,0,0,0-5.53,5.8v15.82h4.73C273.54,328.86,278.58,323.58,278.58,317.11Z" fill="none" stroke="#fff" stroke-miterlimit="10" stroke-width="2"/>
    <path d="M100,301.54H79.22a1,1,0,0,1-1-1V298a1,1,0,0,1,1-1H100a1,1,0,0,1,1,1v2.58a1,1,0,0,1-1,1" fill="#a67ee5"/>
    <path d="M100,301.54H79.22a1,1,0,0,1-1-1V298a1,1,0,0,1,1-1H100a1,1,0,0,1,1,1v2.58A1,1,0,0,1,100,301.54Z" fill="none" stroke="#fff" stroke-miterlimit="10" stroke-width="2"/>
  </g>
  <g>
    <line x1="46.24" y1="329" x2="303.76" y2="329" fill="none" stroke="#fff" stroke-linecap="round" stroke-linejoin="round" stroke-width="2"/>
  </g>
</svg>
