{
	"asset":{
		"version":"2.0",
		"generator":"Created using the official Cinema 4D glTF Exporter 1.000x290161"
	},
	"scenes":[{
		"nodes":[0]
	}],
	"nodes":[{
		"name":"Compas",
		"translation":[206.73345947265626,
		171.40237426757813,
		126.02941131591797],
		"rotation":[0.0,
		0.0,
		0.0,
		-1.0],
		"scale":[1.0,
		1.0,
		1.0],
		"children":[1,
		3,
		4]
	},
	{
		"name":"ArrowCenter",
		"translation":[0.0,
		0.0,
		25.0],
		"rotation":[1.0,
		-6.123234262925839e-17,
		6.123234262925839e-17,
		6.123234262925839e-17],
		"scale":[1.0,
		1.0,
		0.5],
		"mesh":0,
		"children":[2]
	},
	{
		"name":"Arrows",
		"translation":[0.0,
		-1.0889141320677854e-14,
		1.0],
		"rotation":[1.0,
		-6.123234262925839e-17,
		6.123234262925839e-17,
		-6.123234262925839e-17],
		"scale":[1.0,
		1.0,
		2.0],
		"mesh":1
	},
	{
		"name":"Cylinder",
		"mesh":2
	},
	{
		"name":"Tube",
		"mesh":3
	}],
	"meshes":[{
		"primitives":[{
			"attributes":{
				"POSITION":1,
				"NORMAL":2,
				"TEXCOORD_0":3
			},
			"indices":0,
			"material":0
		}]
	},
	{
		"primitives":[{
			"attributes":{
				"POSITION":5,
				"NORMAL":6,
				"TEXCOORD_0":7
			},
			"indices":4,
			"material":0
		}]
	},
	{
		"primitives":[{
			"attributes":{
				"POSITION":9,
				"NORMAL":10,
				"TEXCOORD_0":11
			},
			"indices":8,
			"material":1
		}]
	},
	{
		"primitives":[{
			"attributes":{
				"POSITION":13,
				"NORMAL":14,
				"TEXCOORD_0":15
			},
			"indices":12,
			"material":2
		}]
	}],
	"accessors":[{
		"bufferView":0,
		"type":"SCALAR",
		"componentType":5123,
		"count":1584,
		"byteOffset":0,
		"min":[0],
		"max":[322]
	},
	{
		"bufferView":1,
		"type":"VEC3",
		"componentType":5126,
		"count":323,
		"byteOffset":0,
		"min":[-22.0,
		-22.0,
		-22.0],
		"max":[22.0,
		22.0,
		22.0]
	},
	{
		"bufferView":1,
		"type":"VEC3",
		"componentType":5126,
		"count":323,
		"byteOffset":12,
		"min":[-1.0,
		-1.0,
		-1.0],
		"max":[1.0,
		1.0,
		1.0]
	},
	{
		"bufferView":1,
		"type":"VEC2",
		"componentType":5126,
		"count":323,
		"byteOffset":24,
		"min":[0.0,
		0.0],
		"max":[1.0,
		1.0]
	},
	{
		"bufferView":2,
		"type":"SCALAR",
		"componentType":5123,
		"count":180,
		"byteOffset":0,
		"min":[0],
		"max":[69]
	},
	{
		"bufferView":3,
		"type":"VEC3",
		"componentType":5126,
		"count":70,
		"byteOffset":0,
		"min":[-12.0,
		-95.0,
		-2.0],
		"max":[12.0,
		95.0,
		3.0]
	},
	{
		"bufferView":3,
		"type":"VEC3",
		"componentType":5126,
		"count":70,
		"byteOffset":12,
		"min":[-0.9991147518157959,
		-0.1253199726343155,
		-1.0],
		"max":[0.9991147518157959,
		0.1253199726343155,
		1.0]
	},
	{
		"bufferView":3,
		"type":"VEC2",
		"componentType":5126,
		"count":70,
		"byteOffset":24,
		"min":[0.0,
		0.0],
		"max":[1.0,
		1.0]
	},
	{
		"bufferView":4,
		"type":"SCALAR",
		"componentType":5123,
		"count":900,
		"byteOffset":0,
		"min":[0],
		"max":[216]
	},
	{
		"bufferView":5,
		"type":"VEC3",
		"componentType":5126,
		"count":217,
		"byteOffset":0,
		"min":[-106.0,
		-105.41931915283203,
		-22.5],
		"max":[106.0,
		105.41931915283203,
		22.5]
	},
	{
		"bufferView":5,
		"type":"VEC3",
		"componentType":5126,
		"count":217,
		"byteOffset":12,
		"min":[-1.0,
		-0.9975719451904297,
		-1.0],
		"max":[1.0,
		0.9975719451904297,
		1.0]
	},
	{
		"bufferView":5,
		"type":"VEC2",
		"componentType":5126,
		"count":217,
		"byteOffset":24,
		"min":[0.0,
		0.0],
		"max":[1.0,
		1.0]
	},
	{
		"bufferView":6,
		"type":"SCALAR",
		"componentType":5123,
		"count":1440,
		"byteOffset":0,
		"min":[0],
		"max":[483]
	},
	{
		"bufferView":7,
		"type":"VEC3",
		"componentType":5126,
		"count":484,
		"byteOffset":0,
		"min":[-120.0,
		-120.0,
		-30.0],
		"max":[120.0,
		120.0,
		30.0]
	},
	{
		"bufferView":7,
		"type":"VEC3",
		"componentType":5126,
		"count":484,
		"byteOffset":12,
		"min":[-0.9998474717140198,
		-0.9998474717140198,
		-1.0],
		"max":[0.9998474717140198,
		0.9998474717140198,
		1.0]
	},
	{
		"bufferView":7,
		"type":"VEC2",
		"componentType":5126,
		"count":484,
		"byteOffset":24,
		"min":[0.0,
		0.0],
		"max":[1.0,
		1.0]
	}],
	"bufferViews":[{
		"buffer":0,
		"byteOffset":0,
		"byteLength":3168,
		"target":34963
	},
	{
		"buffer":0,
		"byteOffset":3168,
		"byteLength":10336,
		"target":34962,
		"byteStride":32
	},
	{
		"buffer":1,
		"byteOffset":0,
		"byteLength":360,
		"target":34963
	},
	{
		"buffer":1,
		"byteOffset":360,
		"byteLength":2240,
		"target":34962,
		"byteStride":32
	},
	{
		"buffer":2,
		"byteOffset":0,
		"byteLength":1800,
		"target":34963
	},
	{
		"buffer":2,
		"byteOffset":1800,
		"byteLength":6944,
		"target":34962,
		"byteStride":32
	},
	{
		"buffer":3,
		"byteOffset":0,
		"byteLength":2880,
		"target":34963
	},
	{
		"buffer":3,
		"byteOffset":2880,
		"byteLength":15488,
		"target":34962,
		"byteStride":32
	}],
	"buffers":[{
		"uri":"data:application/octet-stream;base64,",
		"byteLength":13504
	},
	{
		"uri":"data:application/octet-stream;base64,",
		"byteLength":2600
	},
	{
		"uri":"data:application/octet-stream;base64,",
		"byteLength":8744
	},
	{
		"uri":"data:application/octet-stream;base64,",
		"byteLength":18368
	}],
	"materials":[{
		"pbrMetallicRoughness":{
			"baseColorFactor":[0.9019607843137255,
			0.3137254901960784,
			0.0,
			1.0],
			"metallicFactor":0.44,
			"roughnessFactor":0.55
		},
		"emissiveFactor":[0.0,
		0.0,
		0.0],
		"alphaMode":"OPAQUE",
		"doubleSided":false,
		"name":"AccentSoft"
	},
	{
		"pbrMetallicRoughness":{
			"baseColorFactor":[0.98,
			0.9880000000000004,
			1.0,
			1.0],
			"metallicFactor":0.0,
			"roughnessFactor":0.74
		},
		"emissiveFactor":[0.0,
		0.0,
		0.0],
		"alphaMode":"OPAQUE",
		"doubleSided":false,
		"name":"WhiteSoft"
	},
	{
		"pbrMetallicRoughness":{
			"baseColorFactor":[0.23529411764705886,
			0.1764705882352941,
			0.2980392156862745,
			1.0],
			"metallicFactor":0.44,
			"roughnessFactor":0.55
		},
		"emissiveFactor":[0.0,
		0.0,
		0.0],
		"alphaMode":"OPAQUE",
		"doubleSided":false,
		"name":"DominantSoft"
	}]
}