{
	"asset":{
		"version":"2.0",
		"generator":"Created using the official Cinema 4D glTF Exporter 1.000x290161"
	},
	"scenes":[{
		"nodes":[0]
	}],
	"nodes":[{
		"name":"Dog",
		"translation":[0.0,
		0.0,
		0.0],
		"rotation":[1.1126073395928416e-9,
		0.0,
		0.0,
		-1.0],
		"scale":[0.44999998807907107,
		0.44999998807907107,
		0.44999998807907107],
		"children":[1,
		2,
		3,
		4]
	},
	{
		"name":"Tail",
		"translation":[120.09862518310547,
		149.19512939453126,
		0.0],
		"rotation":[0.09513717889785767,
		0.029996637254953386,
		0.2992059290409088,
		-0.9489599466323853],
		"scale":[0.5,
		0.5,
		0.5],
		"mesh":0
	},
	{
		"name":"SoftDark",
		"translation":[17.318378448486329,
		20.705608367919923,
		54.954689025878909],
		"rotation":[1.0,
		-6.123234262925839e-17,
		6.123234262925839e-17,
		-5.510910704284357e-16],
		"scale":[0.20000000298023225,
		0.20000000298023225,
		0.20000000298023225],
		"mesh":1
	},
	{
		"name":"SoftLight",
		"translation":[-118.19249725341797,
		171.0562286376953,
		0.0],
		"rotation":[0.0,
		0.0,
		0.6819983720779419,
		0.7313537001609802],
		"scale":[0.8500000238418579,
		0.8999999761581421,
		1.0],
		"mesh":2
	},
	{
		"name":"Smooth",
		"translation":[-113.9737777709961,
		291.52777099609377,
		0.0],
		"rotation":[0.0,
		0.0,
		0.0,
		-1.0],
		"scale":[1.0,
		1.0,
		1.0],
		"mesh":3
	}],
	"meshes":[{
		"primitives":[{
			"attributes":{
				"POSITION":1,
				"NORMAL":2,
				"TEXCOORD_0":3
			},
			"indices":0,
			"material":0
		}]
	},
	{
		"primitives":[{
			"attributes":{
				"POSITION":5,
				"NORMAL":6,
				"TEXCOORD_0":7
			},
			"indices":4,
			"material":0
		}]
	},
	{
		"primitives":[{
			"attributes":{
				"POSITION":9,
				"NORMAL":10,
				"TEXCOORD_0":11
			},
			"indices":8,
			"material":1
		}]
	},
	{
		"primitives":[{
			"attributes":{
				"POSITION":13,
				"NORMAL":14,
				"TEXCOORD_0":15
			},
			"indices":12,
			"material":2
		}]
	}],
	"accessors":[{
		"bufferView":0,
		"type":"SCALAR",
		"componentType":5123,
		"count":2280,
		"byteOffset":0,
		"min":[0],
		"max":[440]
	},
	{
		"bufferView":1,
		"type":"VEC3",
		"componentType":5126,
		"count":441,
		"byteOffset":0,
		"min":[-144.96131896972657,
		-49.73089599609375,
		-41.692970275878909],
		"max":[29.40743637084961,
		124.21257781982422,
		41.692970275878909]
	},
	{
		"bufferView":1,
		"type":"VEC3",
		"componentType":5126,
		"count":441,
		"byteOffset":12,
		"min":[-0.9331129193305969,
		-0.9745463728904724,
		-0.9880165457725525],
		"max":[0.9943457245826721,
		0.9969313740730286,
		0.9881240725517273]
	},
	{
		"bufferView":1,
		"type":"VEC2",
		"componentType":5126,
		"count":441,
		"byteOffset":24,
		"min":[0.0,
		0.0],
		"max":[1.0,
		1.0]
	},
	{
		"bufferView":2,
		"type":"SCALAR",
		"componentType":5123,
		"count":56787,
		"byteOffset":0,
		"min":[0],
		"max":[17649]
	},
	{
		"bufferView":3,
		"type":"VEC3",
		"componentType":5126,
		"count":17650,
		"byteOffset":0,
		"min":[-1496.253173828125,
		-1574.544677734375,
		-246.4453887939453],
		"max":[668.587158203125,
		109.60197448730469,
		777.4474487304688]
	},
	{
		"bufferView":3,
		"type":"VEC3",
		"componentType":5126,
		"count":17650,
		"byteOffset":12,
		"min":[-0.9994227886199951,
		-0.9999996423721314,
		-0.9999994039535523],
		"max":[0.9999979138374329,
		0.9999999403953552,
		1.0]
	},
	{
		"bufferView":3,
		"type":"VEC2",
		"componentType":5126,
		"count":17650,
		"byteOffset":24,
		"min":[-0.6353700160980225,
		-0.634514570236206],
		"max":[1.6364796161651612,
		1.0495853424072266]
	},
	{
		"bufferView":4,
		"type":"SCALAR",
		"componentType":5123,
		"count":10788,
		"byteOffset":0,
		"min":[0],
		"max":[3256]
	},
	{
		"bufferView":5,
		"type":"VEC3",
		"componentType":5126,
		"count":3257,
		"byteOffset":0,
		"min":[-194.01895141601563,
		-315.8698425292969,
		-77.39041900634766],
		"max":[141.2020721435547,
		93.03644561767578,
		77.28933715820313]
	},
	{
		"bufferView":5,
		"type":"VEC3",
		"componentType":5126,
		"count":3257,
		"byteOffset":12,
		"min":[-0.9997369050979614,
		-0.9999462366104126,
		-0.9999674558639526],
		"max":[0.999495267868042,
		0.9997947812080383,
		0.999954342842102]
	},
	{
		"bufferView":5,
		"type":"VEC2",
		"componentType":5126,
		"count":3257,
		"byteOffset":24,
		"min":[-0.5449010133743286,
		-0.5441673994064331],
		"max":[1.5458526611328126,
		1.0]
	},
	{
		"bufferView":6,
		"type":"SCALAR",
		"componentType":5123,
		"count":26724,
		"byteOffset":0,
		"min":[0],
		"max":[7353]
	},
	{
		"bufferView":7,
		"type":"VEC3",
		"componentType":5126,
		"count":7354,
		"byteOffset":0,
		"min":[-172.127685546875,
		-99.0641860961914,
		-60.32735061645508],
		"max":[22.32245445251465,
		43.14510726928711,
		60.32734680175781]
	},
	{
		"bufferView":7,
		"type":"VEC3",
		"componentType":5126,
		"count":7354,
		"byteOffset":12,
		"min":[-0.9998708367347717,
		-0.9999103546142578,
		-0.9998267889022827],
		"max":[0.9996962547302246,
		1.0,
		0.9998267889022827]
	},
	{
		"bufferView":7,
		"type":"VEC2",
		"componentType":5126,
		"count":7354,
		"byteOffset":24,
		"min":[-0.6353700160980225,
		-0.634514570236206],
		"max":[1.6364796161651612,
		1.0495853424072266]
	}],
	"bufferViews":[{
		"buffer":0,
		"byteOffset":0,
		"byteLength":4560,
		"target":34963
	},
	{
		"buffer":0,
		"byteOffset":4560,
		"byteLength":14112,
		"target":34962,
		"byteStride":32
	},
	{
		"buffer":1,
		"byteOffset":0,
		"byteLength":113574,
		"target":34963
	},
	{
		"buffer":1,
		"byteOffset":113576,
		"byteLength":564800,
		"target":34962,
		"byteStride":32
	},
	{
		"buffer":2,
		"byteOffset":0,
		"byteLength":21576,
		"target":34963
	},
	{
		"buffer":2,
		"byteOffset":21576,
		"byteLength":104224,
		"target":34962,
		"byteStride":32
	},
	{
		"buffer":3,
		"byteOffset":0,
		"byteLength":53448,
		"target":34963
	},
	{
		"buffer":3,
		"byteOffset":53448,
		"byteLength":235328,
		"target":34962,
		"byteStride":32
	}],
	"buffers":[{
		"uri":"data:application/octet-stream;base64,",
		"byteLength":18672
	},
	{
		"uri":"data:application/octet-stream;base64,",
		"byteLength":678376
	},
	{
		"uri":"data:application/octet-stream;base64,",
		"byteLength":125800
	},
	{
		"uri":"data:application/octet-stream;base64,",
		"byteLength":288776
	}],
	"materials":[{
		"pbrMetallicRoughness":{
			"baseColorFactor":[1.0,
			0.12549019607843138,
			0.2588235294117647,
			1.0],
			"metallicFactor":0.44,
			"roughnessFactor":0.55
		},
		"emissiveFactor":[0.0,
		0.0,
		0.0],
		"alphaMode":"OPAQUE",
		"doubleSided":true,
		"name":"DominantSoft"
	},
	{
		"pbrMetallicRoughness":{
			"baseColorFactor":[1.0,
			0.41000000000000005,
			0.46899999999999988,
			1.0],
			"metallicFactor":0.44,
			"roughnessFactor":0.55
		},
		"emissiveFactor":[0.0,
		0.0,
		0.0],
		"alphaMode":"OPAQUE",
		"doubleSided":true,
		"name":"LightDominantSoft"
	},
	{
		"pbrMetallicRoughness":{
			"baseColorFactor":[0.2980392156862745,
			0.19215686274509803,
			0.4745098039215686,
			1.0],
			"metallicFactor":0.44,
			"roughnessFactor":0.55
		},
		"emissiveFactor":[0.0,
		0.0,
		0.0],
		"alphaMode":"OPAQUE",
		"doubleSided":true,
		"name":"SoftGround"
	}]
}